<svg width="850" height="850" viewBox="0 0 850 850" fill="none" xmlns="http://www.w3.org/2000/svg">
    <rect width="850" height="850" fill="none" />
    <path
        d="M687.872 156.2L687.869 156.203L583.868 271.782C581.34 274.606 577.915 276.248 574.36 276.649L572.027 276.912L521.979 334.867C517.698 329.824 513.015 325.134 507.978 320.847L557.58 263.33L557.639 261.195C557.737 257.667 558.962 254.269 561.411 251.549L665.442 135.993C671.012 129.797 680.565 129.302 686.76 134.875C692.947 140.44 693.459 150 687.872 156.2Z"
        fill="#1A528A" />
    <path
        d="M141.698 609.862C116.807 595.713 98.5208 590.821 85.7555 591.381C73.4592 591.921 66.1228 597.482 62.0637 605.601C57.7913 614.147 56.8647 626.188 59.391 639.561C61.8976 652.83 67.6938 666.764 76.0165 678.649C107.014 722.916 152.57 721.415 179.02 711.652C191.917 706.892 205.399 696.496 215.941 686.865C221.141 682.113 225.494 677.671 228.543 674.42L364.404 517.335C358.827 513.853 353.553 509.934 348.629 505.625L211.757 664.34L207.197 659.372C200.39 651.957 185.359 640.335 171.535 630.277C161.838 623.221 152.121 615.835 141.698 609.862Z"
        fill="#1A528A" />
    <path
        d="M157.229 153.423L157.226 153.42C151.639 147.219 152.15 137.66 158.338 132.094C164.533 126.521 174.086 127.017 179.656 133.212L283.687 248.769C286.136 251.489 287.361 254.887 287.459 258.415L287.518 260.549L344.545 326.676C339.746 331.274 335.322 336.261 331.323 341.586L273.071 274.132L270.738 273.868C267.183 273.467 263.758 271.825 261.23 269.002L157.229 153.423Z"
        fill="#1A528A" />
    <path
        d="M503.681 511.208C498.488 515.24 492.96 518.861 487.144 522.024L613.033 667.785C613.839 668.694 615.032 670.015 616.555 671.639C619.604 674.89 623.956 679.332 629.157 684.084C639.698 693.716 653.181 704.111 666.078 708.871C692.528 718.634 738.084 720.135 769.081 675.868C777.404 663.983 783.2 650.049 785.707 636.78C788.233 623.407 787.307 611.366 783.034 602.82C778.975 594.701 771.639 589.14 759.342 588.601C746.578 588.04 728.294 592.932 703.405 607.079C703.317 607.138 698.655 609.874 698.481 609.991C698.134 610.226 697.621 610.574 696.961 611.023C695.642 611.922 693.738 613.225 691.407 614.84C686.742 618.07 680.376 622.539 673.562 627.496C659.739 637.555 644.707 649.177 637.901 656.592L633.341 661.56L543.602 557.5L503.681 511.208Z"
        fill="#1A528A" />
    <path fill-rule="evenodd" clip-rule="evenodd"
        d="M432.5 506C482.482 506 523 465.482 523 415.5C523 365.518 482.482 325 432.5 325C382.518 325 342 365.518 342 415.5C342 465.482 382.518 506 432.5 506ZM432.5 519C489.661 519 536 472.661 536 415.5C536 358.339 489.661 312 432.5 312C375.339 312 329 358.339 329 415.5C329 472.661 375.339 519 432.5 519Z"
        fill="#1A528A" />
    <path
        d="M422.729 362.672C420.591 360.518 417.57 359.497 414.634 359.497C411.698 359.497 408.677 360.518 406.539 362.671C405.154 364.065 405.154 366.223 406.538 367.618C407.928 369.019 410.089 369.018 411.479 367.618L411.527 367.57L411.571 367.517C412.906 365.903 415.799 365.727 417.685 367.518C418.399 368.626 418.959 369.886 418.959 371.013C418.959 372.403 418.615 373.574 417.788 374.407C416.403 375.802 416.403 377.96 417.788 379.354C418.321 379.891 419 380.062 419.407 380.13C419.833 380.202 420.239 380.202 420.439 380.202L420.459 380.202L420.495 380.202C420.939 380.202 421.883 380.204 422.728 379.355L422.787 379.296L422.839 379.23C424.576 377.043 425.977 374.294 425.977 371.013C425.977 367.862 425.068 365.027 422.729 362.672Z"
        fill="#1A528A" />
    <path
        d="M482.095 439.787L482.301 439.528C484.037 437.341 485.438 434.593 485.438 431.311C485.438 428.16 484.529 425.325 482.19 422.97C480.052 420.816 477.031 419.795 474.095 419.795C471.159 419.795 468.138 420.816 465.999 422.97C464.614 424.365 464.616 426.522 465.999 427.916C467.389 429.317 469.55 429.317 470.941 427.916L470.988 427.868L471.032 427.816C472.367 426.201 475.26 426.025 477.147 427.816C477.86 428.925 478.42 430.184 478.42 431.311C478.42 432.702 478.076 433.873 477.249 434.706C475.864 436.1 475.865 438.258 477.249 439.652C477.782 440.189 478.462 440.36 478.868 440.429C479.295 440.5 479.7 440.5 479.9 440.5H479.92C480.232 440.5 480.517 440.429 480.693 440.378C480.891 440.321 481.081 440.251 481.234 440.189C481.53 440.07 481.811 439.93 482.095 439.787Z"
        fill="#1A528A" />
    <path
        d="M450.963 362.233C452.7 360.046 454.1 357.298 454.1 354.016C454.1 350.865 453.191 348.03 450.853 345.675C448.714 343.521 445.693 342.5 442.757 342.5C439.821 342.5 436.8 343.521 434.662 345.675C433.277 347.069 433.278 349.227 434.661 350.621C436.051 352.022 438.213 352.021 439.603 350.621L439.651 350.573L439.694 350.52C441.03 348.906 443.922 348.73 445.809 350.521C446.523 351.63 447.082 352.889 447.082 354.016C447.082 355.406 446.738 356.577 445.911 357.411C444.526 358.805 444.527 360.963 445.911 362.357C446.444 362.894 447.124 363.065 447.531 363.134C447.957 363.205 448.363 363.205 448.563 363.205L448.582 363.205C449.245 363.205 449.776 363.036 450.161 362.843C450.475 362.685 450.71 362.472 450.963 362.233Z"
        fill="#1A528A" />
    <path
        d="M496.362 407.963C498.099 405.775 499.5 403.027 499.5 399.746C499.5 396.607 498.598 393.782 496.28 391.432C492.034 386.715 484.624 386.809 480.062 391.404C478.676 392.799 478.678 394.957 480.061 396.35C481.451 397.751 483.612 397.751 485.003 396.351C486.793 394.548 489.388 394.514 491.208 396.25C491.922 397.359 492.482 398.619 492.482 399.746C492.482 401.136 492.138 402.307 491.311 403.14C489.926 404.534 489.926 406.693 491.311 408.087C491.844 408.624 492.524 408.795 492.93 408.863C493.357 408.935 493.762 408.935 493.962 408.934H493.982C494.645 408.934 495.176 408.766 495.56 408.572C495.876 408.413 496.121 408.214 496.362 407.963Z"
        fill="#1A528A" />
    <path
        d="M459.719 383.339C455.473 378.622 448.063 378.716 443.501 383.311C442.115 384.705 442.117 386.863 443.5 388.257C444.89 389.658 447.051 389.658 448.442 388.257C450.266 386.42 452.926 386.42 454.75 388.257C456.579 390.1 456.58 392.799 454.75 394.642C453.365 396.036 453.365 398.194 454.75 399.588C455.283 400.125 455.963 400.297 456.369 400.365C456.796 400.436 457.201 400.436 457.401 400.436L457.421 400.436C457.769 400.436 458.058 400.349 458.252 400.276L459 400L459.634 399.643C464.332 395.385 464.257 387.94 459.719 383.339Z"
        fill="#1A528A" />
    <path
        d="M473.894 356.968C470.757 356.968 467.937 357.887 465.598 360.244C464.213 361.638 464.213 363.796 465.597 365.19C466.947 366.55 469.023 366.589 470.415 365.309C471.521 364.583 472.776 364.015 473.894 364.015C475.267 364.015 476.424 364.359 477.249 365.19C479.079 367.033 479.079 369.732 477.249 371.575C475.864 372.969 475.865 375.127 477.249 376.521C477.782 377.058 478.462 377.229 478.868 377.298C479.295 377.369 479.7 377.369 479.9 377.369L480.969 377.289C481.174 377.248 481.522 377.159 481.851 376.93C482.053 376.788 482.705 376.379 483 376C486.5 371.5 486.666 364.752 482.19 360.244L482.131 360.185L482.066 360.133C479.895 358.383 477.161 356.968 473.894 356.968Z"
        fill="#1A528A" />
    <mask id="path-5-outside-1" maskUnits="userSpaceOnUse" x="291" y="627" width="275" height="72" fill="black">
        <rect fill="white" x="291" y="627" width="275" height="72" />
        <path
            d="M301.653 639.469C301.117 640.763 301.114 641.973 301.643 643.101C302.187 644.192 303.096 645.499 304.371 647.023C305.389 648.223 306.15 649.209 306.653 649.98C307.193 650.767 307.562 651.655 307.758 652.645C307.954 653.636 307.823 654.685 307.364 655.794C306.584 657.679 305.224 658.977 303.284 659.69C301.344 660.402 299.173 660.261 296.77 659.267C294.812 658.456 293.267 657.167 292.137 655.401C291.976 655.161 291.957 654.893 292.079 654.598L293.758 650.228C293.804 650.117 293.92 650.1 294.104 650.176C294.341 650.231 294.455 650.321 294.446 650.448C294.384 652.586 294.708 654.365 295.419 655.785C296.167 657.22 297.28 658.244 298.759 658.856C299.978 659.361 301.025 659.447 301.898 659.116C302.771 658.785 303.408 658.031 303.808 656.855C304.352 655.435 304.352 654.18 303.808 653.088C303.316 651.976 302.407 650.669 301.08 649.167C300.106 648.071 299.348 647.13 298.808 646.343C298.304 645.572 297.954 644.692 297.758 643.701C297.599 642.726 297.756 641.666 298.231 640.52C299.057 638.524 300.423 637.315 302.33 636.892C304.289 636.447 306.285 636.646 308.317 637.487C309.796 638.099 311.03 638.934 312.02 639.994C312.211 640.159 312.303 640.305 312.294 640.431C312.337 640.536 312.328 640.662 312.267 640.81C311.961 641.549 311.705 642.114 311.5 642.506L310.481 644.811C310.45 644.885 310.324 644.876 310.102 644.784C309.881 644.693 309.785 644.61 309.816 644.536C310.137 643.76 310.139 642.917 309.823 642.007C309.523 641.06 309.013 640.199 308.294 639.426C307.576 638.652 306.773 638.081 305.886 637.714C304.962 637.332 304.115 637.285 303.347 637.573C302.631 637.839 302.066 638.471 301.653 639.469Z" />
        <path
            d="M330.55 638.458C329.753 638.193 329.196 637.775 328.88 637.206C328.601 636.65 328.589 635.992 328.842 635.233C329.094 634.474 329.499 633.955 330.056 633.677C330.65 633.411 331.346 633.411 332.143 633.677C332.902 633.93 333.42 634.334 333.699 634.891C333.977 635.447 333.99 636.105 333.737 636.864C333.484 637.623 333.079 638.142 332.523 638.42C331.966 638.698 331.309 638.711 330.55 638.458ZM316.058 666.01C315.982 665.985 315.982 665.858 316.058 665.631C316.133 665.403 316.209 665.302 316.285 665.327C317.31 665.668 318.1 665.826 318.657 665.801C319.264 665.75 319.751 665.491 320.118 665.023C320.497 664.517 320.87 663.714 321.237 662.613L324.784 651.968C325.239 650.602 325.416 649.565 325.314 648.857C325.251 648.161 324.878 647.699 324.195 647.472C323.512 647.244 322.569 647.225 321.368 647.415L321.311 647.396C321.159 647.346 321.077 647.213 321.064 646.998C321.051 646.783 321.115 646.656 321.254 646.618L329.792 645.668L330.038 645.687C330.114 645.713 330.19 645.801 330.266 645.953C330.355 646.067 330.38 646.181 330.342 646.294C330.254 646.56 329.982 647.313 329.527 648.552C329.071 649.792 328.559 651.266 327.99 652.973L324.425 663.675C324.045 664.814 323.862 665.68 323.875 666.275C323.888 666.869 324.103 667.362 324.52 667.754C324.95 668.109 325.678 668.456 326.702 668.798C326.816 668.836 326.835 668.968 326.759 669.196C326.683 669.424 326.589 669.519 326.475 669.481C325.602 669.19 324.906 668.937 324.388 668.722L321.333 667.641L318.24 666.674C317.696 666.535 316.968 666.313 316.058 666.01Z" />
        <path
            d="M363.354 678.407C363.471 678.435 363.501 678.566 363.445 678.799C363.389 679.032 363.302 679.135 363.186 679.107C362.291 678.892 361.596 678.704 361.1 678.544L357.963 677.727L354.741 677.014C354.226 676.931 353.521 676.782 352.627 676.567C352.51 676.539 352.48 676.409 352.536 676.175C352.592 675.942 352.678 675.839 352.795 675.867C353.845 676.12 354.646 676.21 355.199 676.137C355.76 676.025 356.185 675.716 356.471 675.209C356.797 674.711 357.1 673.879 357.38 672.712L359.653 663.262C360.205 660.967 360.165 659.168 359.532 657.864C358.939 656.569 357.728 655.702 355.9 655.262C354.694 654.972 353.39 655.008 351.986 655.37C350.631 655.702 349.312 656.31 348.03 657.195L345.013 669.737C344.732 670.904 344.604 671.778 344.629 672.36C344.692 672.951 344.949 673.425 345.398 673.78C345.857 674.096 346.611 674.38 347.662 674.632C347.778 674.661 347.808 674.791 347.752 675.025C347.696 675.258 347.61 675.361 347.493 675.333C346.599 675.117 345.903 674.93 345.407 674.769L342.271 673.953L339.048 673.24C338.534 673.157 337.829 673.008 336.934 672.793C336.818 672.765 336.787 672.634 336.843 672.401C336.9 672.167 336.986 672.065 337.103 672.093C338.153 672.345 338.954 672.435 339.506 672.362C340.068 672.251 340.492 671.941 340.779 671.434C341.104 670.936 341.407 670.104 341.688 668.938L344.466 657.387C344.784 656.065 344.858 655.074 344.687 654.416C344.516 653.758 344.061 653.34 343.322 653.162C342.7 653.013 341.58 653.052 339.962 653.28L339.845 653.252C339.689 653.214 339.591 653.108 339.551 652.934C339.559 652.73 339.65 652.608 339.824 652.568L347.363 650.987L347.727 651.013C348.077 651.097 348.339 651.633 348.513 652.621C348.686 653.609 348.605 654.803 348.268 656.203C350.158 654.848 351.92 653.934 353.555 653.464C355.23 653.003 356.845 652.959 358.4 653.333C360.578 653.857 362.106 654.862 362.982 656.348C363.859 657.835 364.017 659.744 363.455 662.078L360.705 673.512C360.425 674.679 360.297 675.553 360.321 676.135C360.385 676.726 360.641 677.199 361.091 677.554C361.55 677.87 362.304 678.154 363.354 678.407Z" />
        <path
            d="M383.505 682.92C380.93 682.561 378.848 681.705 377.26 680.353C375.677 678.96 374.594 677.315 374.011 675.416C373.428 673.517 373.275 671.577 373.551 669.597C373.905 667.061 374.846 664.951 376.373 663.266C377.907 661.541 379.733 660.322 381.852 659.608C384.016 658.86 386.148 658.633 388.247 658.926C389.991 659.169 391.525 659.747 392.852 660.659C394.224 661.537 394.838 662.491 394.694 663.521C394.622 664.036 394.361 664.464 393.909 664.805C393.503 665.111 392.983 665.221 392.349 665.132C391.279 664.983 390.499 664.208 390.008 662.806C389.603 661.942 389.132 661.27 388.593 660.791C388.054 660.312 387.23 659.995 386.121 659.84C383.902 659.531 382.037 660.159 380.526 661.725C379.06 663.257 378.126 665.469 377.722 668.361C377.258 671.689 377.708 674.539 379.073 676.91C380.439 679.282 382.785 680.7 386.113 681.164C388.529 681.501 390.641 681.13 392.448 680.049L392.507 680.057C392.626 680.074 392.717 680.147 392.779 680.277C392.882 680.413 392.888 680.514 392.797 680.582C391.239 681.617 389.706 682.332 388.197 682.727C386.733 683.088 385.169 683.153 383.505 682.92Z" />
        <path
            d="M421.743 681.985C421.863 681.991 421.959 682.076 422.031 682.24C422.144 682.366 422.158 682.487 422.072 682.602C419.319 684.787 416.345 685.799 413.149 685.639C410.832 685.522 408.881 684.884 407.298 683.723C405.714 682.562 404.527 681.081 403.736 679.279C402.985 677.479 402.66 675.58 402.76 673.583C402.879 671.226 403.546 669.097 404.763 667.195C405.982 665.254 407.578 663.772 409.552 662.75C411.568 661.689 413.734 661.217 416.051 661.334C418.288 661.446 419.976 662.132 421.115 663.39C422.253 664.649 422.768 666.357 422.66 668.514C422.631 669.073 422.552 669.47 422.42 669.704C422.328 669.939 422.162 670.051 421.922 670.039L407.058 669.353C406.934 670.228 406.858 670.945 406.83 671.504C406.655 674.98 407.333 677.837 408.862 680.077C410.392 682.316 412.635 683.51 415.591 683.659C416.79 683.719 417.817 683.61 418.672 683.333C419.567 683.057 420.57 682.607 421.683 681.982L421.743 681.985ZM414.014 662.433C412.296 662.347 410.848 662.855 409.672 663.957C408.497 665.02 407.679 666.561 407.217 668.58L418.615 668.912C418.717 666.874 418.355 665.314 417.528 664.231C416.703 663.109 415.532 662.509 414.014 662.433Z" />
        <path
            d="M457.326 665.857C457.215 664.622 457.014 663.737 456.725 663.201C456.435 662.665 455.923 662.329 455.188 662.195C454.493 662.057 453.369 662.058 451.815 662.198C451.695 662.209 451.625 662.095 451.603 661.856C451.582 661.616 451.631 661.492 451.75 661.481C452.905 661.377 453.824 661.314 454.504 661.293L458.573 660.986L462.572 660.565C463.245 660.464 464.18 660.359 465.375 660.251C465.494 660.241 465.565 660.355 465.586 660.594C465.608 660.833 465.559 660.958 465.439 660.968C463.965 661.101 462.881 661.32 462.185 661.624C461.526 661.884 461.082 662.305 460.853 662.888C460.625 663.471 460.565 664.36 460.672 665.555L461.88 678.941C461.992 680.176 462.192 681.062 462.481 681.598C462.771 682.134 463.263 682.471 463.958 682.609C464.693 682.744 465.838 682.741 467.391 682.601C467.511 682.59 467.582 682.704 467.603 682.943C467.625 683.182 467.576 683.307 467.456 683.318C466.301 683.422 465.383 683.485 464.702 683.506L460.633 683.813L456.635 684.234C455.961 684.335 455.027 684.439 453.832 684.547C453.712 684.558 453.641 684.444 453.62 684.205C453.598 683.966 453.647 683.841 453.767 683.83C455.241 683.697 456.307 683.5 456.967 683.24C457.662 682.936 458.124 682.493 458.353 681.91C458.581 681.327 458.642 680.438 458.534 679.243L457.326 665.857Z" />
        <path
            d="M485.365 674.186C482.529 674.689 480.279 674.256 478.614 672.885C476.949 671.515 475.931 669.786 475.561 667.699C475.247 665.926 475.44 664.267 476.141 662.721C476.841 661.175 477.929 659.865 479.404 658.791C480.919 657.709 482.68 656.991 484.689 656.634C488.312 655.992 491.411 656.742 493.985 658.885C496.598 661.022 498.272 664.158 499.005 668.293C499.641 671.877 499.443 675.569 498.41 679.367C497.378 683.166 495.527 686.704 492.859 689.98C490.197 693.296 486.835 695.984 482.772 698.046C482.661 698.106 482.529 698.048 482.376 697.872C482.262 697.689 482.277 697.544 482.421 697.438C485.857 695.284 488.638 692.638 490.762 689.499C492.887 686.36 494.319 683.099 495.06 679.718C495.84 676.329 495.965 673.139 495.434 670.145C495.064 668.058 494.375 666.007 493.367 663.992C492.399 661.97 491.1 660.372 489.47 659.199C487.873 657.979 486.03 657.554 483.943 657.925C482.052 658.26 480.684 659.132 479.837 660.542C478.99 661.952 478.759 663.739 479.143 665.906C479.527 668.072 480.396 669.766 481.751 670.988C483.137 672.164 484.874 672.567 486.962 672.197C487.986 672.015 488.864 671.697 489.596 671.242C490.327 670.787 491.112 670.059 491.95 669.057C491.983 669.011 492.038 668.981 492.117 668.967C492.235 668.946 492.364 668.984 492.503 669.081C492.642 669.178 492.699 669.27 492.673 669.355C491.109 671.989 488.673 673.599 485.365 674.186Z" />
        <path
            d="M520.587 651.675C522.805 652.169 524.636 652.69 526.08 653.238C527.551 653.736 528.871 654.506 530.039 655.547C531.206 656.588 532.03 657.956 532.51 659.649C533.043 661.535 532.97 663.406 532.29 665.261C531.648 667.106 530.509 668.737 528.874 670.157C527.277 671.565 525.382 672.579 523.188 673.2C520.956 673.832 518.873 673.965 516.94 673.597C514.996 673.192 513.341 672.413 511.976 671.261C510.638 670.06 509.735 668.632 509.267 666.977C508.624 664.706 508.77 662.358 509.704 659.932C510.677 657.494 512.116 655.383 514.022 653.596C512.259 653.097 510.832 652.462 509.741 651.69C508.649 650.918 507.913 649.859 507.531 648.512C507.106 647.011 507.209 645.61 507.838 644.309C508.468 643.008 509.404 641.912 510.648 641.019C511.881 640.088 513.191 639.427 514.576 639.034C516.116 638.599 517.55 638.525 518.879 638.814C520.235 639.054 521.352 639.548 522.23 640.297C523.145 641.036 523.745 641.905 524.028 642.906C524.377 644.138 524.25 645.525 523.647 647.067C523.072 648.56 522.052 650.096 520.587 651.675ZM513.625 640.301C512.278 640.683 511.271 641.383 510.604 642.404C509.975 643.413 509.846 644.572 510.216 645.881C510.674 647.497 511.676 648.689 513.224 649.457C514.761 650.186 516.971 650.87 519.854 651.509C520.543 650.274 520.988 649.129 521.189 648.075C521.378 646.982 521.315 645.877 520.999 644.761C520.487 642.952 519.534 641.642 518.14 640.831C516.785 640.009 515.28 639.833 513.625 640.301ZM524.511 671.704C526.627 671.104 528.174 669.96 529.151 668.27C530.166 666.569 530.363 664.622 529.742 662.428C529.241 660.658 528.387 659.257 527.181 658.227C525.974 657.196 524.641 656.451 523.181 655.992C521.748 655.483 519.859 654.978 517.514 654.478L514.977 653.887C513.682 655.334 512.816 656.972 512.377 658.801C511.977 660.618 512.05 662.489 512.594 664.414C513.085 666.146 513.927 667.653 515.122 668.936C516.316 670.219 517.737 671.127 519.384 671.658C521.031 672.19 522.74 672.205 524.511 671.704Z" />
        <path
            d="M552.078 640.662C554.335 640.925 556.21 641.255 557.703 641.65C559.218 641.994 560.609 642.624 561.878 643.539C563.147 644.454 564.107 645.73 564.759 647.365C565.484 649.185 565.604 651.054 565.119 652.969C564.671 654.87 563.706 656.611 562.226 658.191C560.783 659.756 559.002 660.961 556.884 661.805C554.729 662.663 552.671 663.01 550.71 662.844C548.735 662.64 547.009 662.036 545.532 661.032C544.077 659.975 543.032 658.648 542.395 657.05C541.522 654.857 541.425 652.506 542.104 649.997C542.821 647.472 544.034 645.223 545.745 643.25C543.941 642.935 542.456 642.45 541.291 641.795C540.125 641.14 539.284 640.162 538.766 638.861C538.188 637.412 538.146 636.008 538.638 634.65C539.13 633.291 539.948 632.104 541.094 631.088C542.224 630.034 543.458 629.241 544.796 628.708C546.282 628.116 547.701 627.895 549.053 628.046C550.427 628.144 551.589 628.521 552.539 629.176C553.526 629.816 554.212 630.619 554.597 631.585C555.071 632.774 555.087 634.167 554.647 635.763C554.229 637.308 553.372 638.941 552.078 640.662ZM543.981 630.067C542.68 630.585 541.751 631.386 541.192 632.469C540.671 633.538 540.662 634.704 541.165 635.968C541.787 637.529 542.907 638.611 544.525 639.215C546.129 639.781 548.398 640.234 551.331 640.572C551.89 639.273 552.215 638.089 552.305 637.019C552.381 635.913 552.204 634.82 551.775 633.743C551.079 631.996 549.996 630.792 548.526 630.128C547.094 629.451 545.579 629.43 543.981 630.067ZM558.045 660.18C560.089 659.365 561.509 658.067 562.307 656.286C563.141 654.489 563.136 652.532 562.292 650.414C561.611 648.705 560.618 647.4 559.312 646.499C558.006 645.599 556.603 644.995 555.103 644.689C553.625 644.33 551.694 644.023 549.31 643.767L546.726 643.44C545.587 645.014 544.894 646.732 544.646 648.596C544.436 650.445 544.701 652.299 545.441 654.157C546.107 655.829 547.101 657.242 548.421 658.395C549.742 659.548 551.249 660.304 552.942 660.663C554.635 661.022 556.336 660.861 558.045 660.18Z" />
    </mask>
    <path
        d="M301.653 639.469C301.117 640.763 301.114 641.973 301.643 643.101C302.187 644.192 303.096 645.499 304.371 647.023C305.389 648.223 306.15 649.209 306.653 649.98C307.193 650.767 307.562 651.655 307.758 652.645C307.954 653.636 307.823 654.685 307.364 655.794C306.584 657.679 305.224 658.977 303.284 659.69C301.344 660.402 299.173 660.261 296.77 659.267C294.812 658.456 293.267 657.167 292.137 655.401C291.976 655.161 291.957 654.893 292.079 654.598L293.758 650.228C293.804 650.117 293.92 650.1 294.104 650.176C294.341 650.231 294.455 650.321 294.446 650.448C294.384 652.586 294.708 654.365 295.419 655.785C296.167 657.22 297.28 658.244 298.759 658.856C299.978 659.361 301.025 659.447 301.898 659.116C302.771 658.785 303.408 658.031 303.808 656.855C304.352 655.435 304.352 654.18 303.808 653.088C303.316 651.976 302.407 650.669 301.08 649.167C300.106 648.071 299.348 647.13 298.808 646.343C298.304 645.572 297.954 644.692 297.758 643.701C297.599 642.726 297.756 641.666 298.231 640.52C299.057 638.524 300.423 637.315 302.33 636.892C304.289 636.447 306.285 636.646 308.317 637.487C309.796 638.099 311.03 638.934 312.02 639.994C312.211 640.159 312.303 640.305 312.294 640.431C312.337 640.536 312.328 640.662 312.267 640.81C311.961 641.549 311.705 642.114 311.5 642.506L310.481 644.811C310.45 644.885 310.324 644.876 310.102 644.784C309.881 644.693 309.785 644.61 309.816 644.536C310.137 643.76 310.139 642.917 309.823 642.007C309.523 641.06 309.013 640.199 308.294 639.426C307.576 638.652 306.773 638.081 305.886 637.714C304.962 637.332 304.115 637.285 303.347 637.573C302.631 637.839 302.066 638.471 301.653 639.469Z"
        fill="#1A528A" />
    <path
        d="M330.55 638.458C329.753 638.193 329.196 637.775 328.88 637.206C328.601 636.65 328.589 635.992 328.842 635.233C329.094 634.474 329.499 633.955 330.056 633.677C330.65 633.411 331.346 633.411 332.143 633.677C332.902 633.93 333.42 634.334 333.699 634.891C333.977 635.447 333.99 636.105 333.737 636.864C333.484 637.623 333.079 638.142 332.523 638.42C331.966 638.698 331.309 638.711 330.55 638.458ZM316.058 666.01C315.982 665.985 315.982 665.858 316.058 665.631C316.133 665.403 316.209 665.302 316.285 665.327C317.31 665.668 318.1 665.826 318.657 665.801C319.264 665.75 319.751 665.491 320.118 665.023C320.497 664.517 320.87 663.714 321.237 662.613L324.784 651.968C325.239 650.602 325.416 649.565 325.314 648.857C325.251 648.161 324.878 647.699 324.195 647.472C323.512 647.244 322.569 647.225 321.368 647.415L321.311 647.396C321.159 647.346 321.077 647.213 321.064 646.998C321.051 646.783 321.115 646.656 321.254 646.618L329.792 645.668L330.038 645.687C330.114 645.713 330.19 645.801 330.266 645.953C330.355 646.067 330.38 646.181 330.342 646.294C330.254 646.56 329.982 647.313 329.527 648.552C329.071 649.792 328.559 651.266 327.99 652.973L324.425 663.675C324.045 664.814 323.862 665.68 323.875 666.275C323.888 666.869 324.103 667.362 324.52 667.754C324.95 668.109 325.678 668.456 326.702 668.798C326.816 668.836 326.835 668.968 326.759 669.196C326.683 669.424 326.589 669.519 326.475 669.481C325.602 669.19 324.906 668.937 324.388 668.722L321.333 667.641L318.24 666.674C317.696 666.535 316.968 666.313 316.058 666.01Z"
        fill="#1A528A" />
    <path
        d="M363.354 678.407C363.471 678.435 363.501 678.566 363.445 678.799C363.389 679.032 363.302 679.135 363.186 679.107C362.291 678.892 361.596 678.704 361.1 678.544L357.963 677.727L354.741 677.014C354.226 676.931 353.521 676.782 352.627 676.567C352.51 676.539 352.48 676.409 352.536 676.175C352.592 675.942 352.678 675.839 352.795 675.867C353.845 676.12 354.646 676.21 355.199 676.137C355.76 676.025 356.185 675.716 356.471 675.209C356.797 674.711 357.1 673.879 357.38 672.712L359.653 663.262C360.205 660.967 360.165 659.168 359.532 657.864C358.939 656.569 357.728 655.702 355.9 655.262C354.694 654.972 353.39 655.008 351.986 655.37C350.631 655.702 349.312 656.31 348.03 657.195L345.013 669.737C344.732 670.904 344.604 671.778 344.629 672.36C344.692 672.951 344.949 673.425 345.398 673.78C345.857 674.096 346.611 674.38 347.662 674.632C347.778 674.661 347.808 674.791 347.752 675.025C347.696 675.258 347.61 675.361 347.493 675.333C346.599 675.117 345.903 674.93 345.407 674.769L342.271 673.953L339.048 673.24C338.534 673.157 337.829 673.008 336.934 672.793C336.818 672.765 336.787 672.634 336.843 672.401C336.9 672.167 336.986 672.065 337.103 672.093C338.153 672.345 338.954 672.435 339.506 672.362C340.068 672.251 340.492 671.941 340.779 671.434C341.104 670.936 341.407 670.104 341.688 668.938L344.466 657.387C344.784 656.065 344.858 655.074 344.687 654.416C344.516 653.758 344.061 653.34 343.322 653.162C342.7 653.013 341.58 653.052 339.962 653.28L339.845 653.252C339.689 653.214 339.591 653.108 339.551 652.934C339.559 652.73 339.65 652.608 339.824 652.568L347.363 650.987L347.727 651.013C348.077 651.097 348.339 651.633 348.513 652.621C348.686 653.609 348.605 654.803 348.268 656.203C350.158 654.848 351.92 653.934 353.555 653.464C355.23 653.003 356.845 652.959 358.4 653.333C360.578 653.857 362.106 654.862 362.982 656.348C363.859 657.835 364.017 659.744 363.455 662.078L360.705 673.512C360.425 674.679 360.297 675.553 360.321 676.135C360.385 676.726 360.641 677.199 361.091 677.554C361.55 677.87 362.304 678.154 363.354 678.407Z"
        fill="#1A528A" />
    <path
        d="M383.505 682.92C380.93 682.561 378.848 681.705 377.26 680.353C375.677 678.96 374.594 677.315 374.011 675.416C373.428 673.517 373.275 671.577 373.551 669.597C373.905 667.061 374.846 664.951 376.373 663.266C377.907 661.541 379.733 660.322 381.852 659.608C384.016 658.86 386.148 658.633 388.247 658.926C389.991 659.169 391.525 659.747 392.852 660.659C394.224 661.537 394.838 662.491 394.694 663.521C394.622 664.036 394.361 664.464 393.909 664.805C393.503 665.111 392.983 665.221 392.349 665.132C391.279 664.983 390.499 664.208 390.008 662.806C389.603 661.942 389.132 661.27 388.593 660.791C388.054 660.312 387.23 659.995 386.121 659.84C383.902 659.531 382.037 660.159 380.526 661.725C379.06 663.257 378.126 665.469 377.722 668.361C377.258 671.689 377.708 674.539 379.073 676.91C380.439 679.282 382.785 680.7 386.113 681.164C388.529 681.501 390.641 681.13 392.448 680.049L392.507 680.057C392.626 680.074 392.717 680.147 392.779 680.277C392.882 680.413 392.888 680.514 392.797 680.582C391.239 681.617 389.706 682.332 388.197 682.727C386.733 683.088 385.169 683.153 383.505 682.92Z"
        fill="#1A528A" />
    <path
        d="M421.743 681.985C421.863 681.991 421.959 682.076 422.031 682.24C422.144 682.366 422.158 682.487 422.072 682.602C419.319 684.787 416.345 685.799 413.149 685.639C410.832 685.522 408.881 684.884 407.298 683.723C405.714 682.562 404.527 681.081 403.736 679.279C402.985 677.479 402.66 675.58 402.76 673.583C402.879 671.226 403.546 669.097 404.763 667.195C405.982 665.254 407.578 663.772 409.552 662.75C411.568 661.689 413.734 661.217 416.051 661.334C418.288 661.446 419.976 662.132 421.115 663.39C422.253 664.649 422.768 666.357 422.66 668.514C422.631 669.073 422.552 669.47 422.42 669.704C422.328 669.939 422.162 670.051 421.922 670.039L407.058 669.353C406.934 670.228 406.858 670.945 406.83 671.504C406.655 674.98 407.333 677.837 408.862 680.077C410.392 682.316 412.635 683.51 415.591 683.659C416.79 683.719 417.817 683.61 418.672 683.333C419.567 683.057 420.57 682.607 421.683 681.982L421.743 681.985ZM414.014 662.433C412.296 662.347 410.848 662.855 409.672 663.957C408.497 665.02 407.679 666.561 407.217 668.58L418.615 668.912C418.717 666.874 418.355 665.314 417.528 664.231C416.703 663.109 415.532 662.509 414.014 662.433Z"
        fill="#1A528A" />
    <path
        d="M457.326 665.857C457.215 664.622 457.014 663.737 456.725 663.201C456.435 662.665 455.923 662.329 455.188 662.195C454.493 662.057 453.369 662.058 451.815 662.198C451.695 662.209 451.625 662.095 451.603 661.856C451.582 661.616 451.631 661.492 451.75 661.481C452.905 661.377 453.824 661.314 454.504 661.293L458.573 660.986L462.572 660.565C463.245 660.464 464.18 660.359 465.375 660.251C465.494 660.241 465.565 660.355 465.586 660.594C465.608 660.833 465.559 660.958 465.439 660.968C463.965 661.101 462.881 661.32 462.185 661.624C461.526 661.884 461.082 662.305 460.853 662.888C460.625 663.471 460.565 664.36 460.672 665.555L461.88 678.941C461.992 680.176 462.192 681.062 462.481 681.598C462.771 682.134 463.263 682.471 463.958 682.609C464.693 682.744 465.838 682.741 467.391 682.601C467.511 682.59 467.582 682.704 467.603 682.943C467.625 683.182 467.576 683.307 467.456 683.318C466.301 683.422 465.383 683.485 464.702 683.506L460.633 683.813L456.635 684.234C455.961 684.335 455.027 684.439 453.832 684.547C453.712 684.558 453.641 684.444 453.62 684.205C453.598 683.966 453.647 683.841 453.767 683.83C455.241 683.697 456.307 683.5 456.967 683.24C457.662 682.936 458.124 682.493 458.353 681.91C458.581 681.327 458.642 680.438 458.534 679.243L457.326 665.857Z"
        fill="#1A528A" />
    <path
        d="M485.365 674.186C482.529 674.689 480.279 674.256 478.614 672.885C476.949 671.515 475.931 669.786 475.561 667.699C475.247 665.926 475.44 664.267 476.141 662.721C476.841 661.175 477.929 659.865 479.404 658.791C480.919 657.709 482.68 656.991 484.689 656.634C488.312 655.992 491.411 656.742 493.985 658.885C496.598 661.022 498.272 664.158 499.005 668.293C499.641 671.877 499.443 675.569 498.41 679.367C497.378 683.166 495.527 686.704 492.859 689.98C490.197 693.296 486.835 695.984 482.772 698.046C482.661 698.106 482.529 698.048 482.376 697.872C482.262 697.689 482.277 697.544 482.421 697.438C485.857 695.284 488.638 692.638 490.762 689.499C492.887 686.36 494.319 683.099 495.06 679.718C495.84 676.329 495.965 673.139 495.434 670.145C495.064 668.058 494.375 666.007 493.367 663.992C492.399 661.97 491.1 660.372 489.47 659.199C487.873 657.979 486.03 657.554 483.943 657.925C482.052 658.26 480.684 659.132 479.837 660.542C478.99 661.952 478.759 663.739 479.143 665.906C479.527 668.072 480.396 669.766 481.751 670.988C483.137 672.164 484.874 672.567 486.962 672.197C487.986 672.015 488.864 671.697 489.596 671.242C490.327 670.787 491.112 670.059 491.95 669.057C491.983 669.011 492.038 668.981 492.117 668.967C492.235 668.946 492.364 668.984 492.503 669.081C492.642 669.178 492.699 669.27 492.673 669.355C491.109 671.989 488.673 673.599 485.365 674.186Z"
        fill="#1A528A" />
    <path
        d="M520.587 651.675C522.805 652.169 524.636 652.69 526.08 653.238C527.551 653.736 528.871 654.506 530.039 655.547C531.206 656.588 532.03 657.956 532.51 659.649C533.043 661.535 532.97 663.406 532.29 665.261C531.648 667.106 530.509 668.737 528.874 670.157C527.277 671.565 525.382 672.579 523.188 673.2C520.956 673.832 518.873 673.965 516.94 673.597C514.996 673.192 513.341 672.413 511.976 671.261C510.638 670.06 509.735 668.632 509.267 666.977C508.624 664.706 508.77 662.358 509.704 659.932C510.677 657.494 512.116 655.383 514.022 653.596C512.259 653.097 510.832 652.462 509.741 651.69C508.649 650.918 507.913 649.859 507.531 648.512C507.106 647.011 507.209 645.61 507.838 644.309C508.468 643.008 509.404 641.912 510.648 641.019C511.881 640.088 513.191 639.427 514.576 639.034C516.116 638.599 517.55 638.525 518.879 638.814C520.235 639.054 521.352 639.548 522.23 640.297C523.145 641.036 523.745 641.905 524.028 642.906C524.377 644.138 524.25 645.525 523.647 647.067C523.072 648.56 522.052 650.096 520.587 651.675ZM513.625 640.301C512.278 640.683 511.271 641.383 510.604 642.404C509.975 643.413 509.846 644.572 510.216 645.881C510.674 647.497 511.676 648.689 513.224 649.457C514.761 650.186 516.971 650.87 519.854 651.509C520.543 650.274 520.988 649.129 521.189 648.075C521.378 646.982 521.315 645.877 520.999 644.761C520.487 642.952 519.534 641.642 518.14 640.831C516.785 640.009 515.28 639.833 513.625 640.301ZM524.511 671.704C526.627 671.104 528.174 669.96 529.151 668.27C530.166 666.569 530.363 664.622 529.742 662.428C529.241 660.658 528.387 659.257 527.181 658.227C525.974 657.196 524.641 656.451 523.181 655.992C521.748 655.483 519.859 654.978 517.514 654.478L514.977 653.887C513.682 655.334 512.816 656.972 512.377 658.801C511.977 660.618 512.05 662.489 512.594 664.414C513.085 666.146 513.927 667.653 515.122 668.936C516.316 670.219 517.737 671.127 519.384 671.658C521.031 672.19 522.74 672.205 524.511 671.704Z"
        fill="#1A528A" />
    <path
        d="M552.078 640.662C554.335 640.925 556.21 641.255 557.703 641.65C559.218 641.994 560.609 642.624 561.878 643.539C563.147 644.454 564.107 645.73 564.759 647.365C565.484 649.185 565.604 651.054 565.119 652.969C564.671 654.87 563.706 656.611 562.226 658.191C560.783 659.756 559.002 660.961 556.884 661.805C554.729 662.663 552.671 663.01 550.71 662.844C548.735 662.64 547.009 662.036 545.532 661.032C544.077 659.975 543.032 658.648 542.395 657.05C541.522 654.857 541.425 652.506 542.104 649.997C542.821 647.472 544.034 645.223 545.745 643.25C543.941 642.935 542.456 642.45 541.291 641.795C540.125 641.14 539.284 640.162 538.766 638.861C538.188 637.412 538.146 636.008 538.638 634.65C539.13 633.291 539.948 632.104 541.094 631.088C542.224 630.034 543.458 629.241 544.796 628.708C546.282 628.116 547.701 627.895 549.053 628.046C550.427 628.144 551.589 628.521 552.539 629.176C553.526 629.816 554.212 630.619 554.597 631.585C555.071 632.774 555.087 634.167 554.647 635.763C554.229 637.308 553.372 638.941 552.078 640.662ZM543.981 630.067C542.68 630.585 541.751 631.386 541.192 632.469C540.671 633.538 540.662 634.704 541.165 635.968C541.787 637.529 542.907 638.611 544.525 639.215C546.129 639.781 548.398 640.234 551.331 640.572C551.89 639.273 552.215 638.089 552.305 637.019C552.381 635.913 552.204 634.82 551.775 633.743C551.079 631.996 549.996 630.792 548.526 630.128C547.094 629.451 545.579 629.43 543.981 630.067ZM558.045 660.18C560.089 659.365 561.509 658.067 562.307 656.286C563.141 654.489 563.136 652.532 562.292 650.414C561.611 648.705 560.618 647.4 559.312 646.499C558.006 645.599 556.603 644.995 555.103 644.689C553.625 644.33 551.694 644.023 549.31 643.767L546.726 643.44C545.587 645.014 544.894 646.732 544.646 648.596C544.436 650.445 544.701 652.299 545.441 654.157C546.107 655.829 547.101 657.242 548.421 658.395C549.742 659.548 551.249 660.304 552.942 660.663C554.635 661.022 556.336 660.861 558.045 660.18Z"
        fill="#1A528A" />
    <path
        d="M301.653 639.469C301.117 640.763 301.114 641.973 301.643 643.101C302.187 644.192 303.096 645.499 304.371 647.023C305.389 648.223 306.15 649.209 306.653 649.98C307.193 650.767 307.562 651.655 307.758 652.645C307.954 653.636 307.823 654.685 307.364 655.794C306.584 657.679 305.224 658.977 303.284 659.69C301.344 660.402 299.173 660.261 296.77 659.267C294.812 658.456 293.267 657.167 292.137 655.401C291.976 655.161 291.957 654.893 292.079 654.598L293.758 650.228C293.804 650.117 293.92 650.1 294.104 650.176C294.341 650.231 294.455 650.321 294.446 650.448C294.384 652.586 294.708 654.365 295.419 655.785C296.167 657.22 297.28 658.244 298.759 658.856C299.978 659.361 301.025 659.447 301.898 659.116C302.771 658.785 303.408 658.031 303.808 656.855C304.352 655.435 304.352 654.18 303.808 653.088C303.316 651.976 302.407 650.669 301.08 649.167C300.106 648.071 299.348 647.13 298.808 646.343C298.304 645.572 297.954 644.692 297.758 643.701C297.599 642.726 297.756 641.666 298.231 640.52C299.057 638.524 300.423 637.315 302.33 636.892C304.289 636.447 306.285 636.646 308.317 637.487C309.796 638.099 311.03 638.934 312.02 639.994C312.211 640.159 312.303 640.305 312.294 640.431C312.337 640.536 312.328 640.662 312.267 640.81C311.961 641.549 311.705 642.114 311.5 642.506L310.481 644.811C310.45 644.885 310.324 644.876 310.102 644.784C309.881 644.693 309.785 644.61 309.816 644.536C310.137 643.76 310.139 642.917 309.823 642.007C309.523 641.06 309.013 640.199 308.294 639.426C307.576 638.652 306.773 638.081 305.886 637.714C304.962 637.332 304.115 637.285 303.347 637.573C302.631 637.839 302.066 638.471 301.653 639.469Z"
        stroke="#1A528A" mask="url(#path-5-outside-1)" />
    <path
        d="M330.55 638.458C329.753 638.193 329.196 637.775 328.88 637.206C328.601 636.65 328.589 635.992 328.842 635.233C329.094 634.474 329.499 633.955 330.056 633.677C330.65 633.411 331.346 633.411 332.143 633.677C332.902 633.93 333.42 634.334 333.699 634.891C333.977 635.447 333.99 636.105 333.737 636.864C333.484 637.623 333.079 638.142 332.523 638.42C331.966 638.698 331.309 638.711 330.55 638.458ZM316.058 666.01C315.982 665.985 315.982 665.858 316.058 665.631C316.133 665.403 316.209 665.302 316.285 665.327C317.31 665.668 318.1 665.826 318.657 665.801C319.264 665.75 319.751 665.491 320.118 665.023C320.497 664.517 320.87 663.714 321.237 662.613L324.784 651.968C325.239 650.602 325.416 649.565 325.314 648.857C325.251 648.161 324.878 647.699 324.195 647.472C323.512 647.244 322.569 647.225 321.368 647.415L321.311 647.396C321.159 647.346 321.077 647.213 321.064 646.998C321.051 646.783 321.115 646.656 321.254 646.618L329.792 645.668L330.038 645.687C330.114 645.713 330.19 645.801 330.266 645.953C330.355 646.067 330.38 646.181 330.342 646.294C330.254 646.56 329.982 647.313 329.527 648.552C329.071 649.792 328.559 651.266 327.99 652.973L324.425 663.675C324.045 664.814 323.862 665.68 323.875 666.275C323.888 666.869 324.103 667.362 324.52 667.754C324.95 668.109 325.678 668.456 326.702 668.798C326.816 668.836 326.835 668.968 326.759 669.196C326.683 669.424 326.589 669.519 326.475 669.481C325.602 669.19 324.906 668.937 324.388 668.722L321.333 667.641L318.24 666.674C317.696 666.535 316.968 666.313 316.058 666.01Z"
        stroke="#1A528A" mask="url(#path-5-outside-1)" />
    <path
        d="M363.354 678.407C363.471 678.435 363.501 678.566 363.445 678.799C363.389 679.032 363.302 679.135 363.186 679.107C362.291 678.892 361.596 678.704 361.1 678.544L357.963 677.727L354.741 677.014C354.226 676.931 353.521 676.782 352.627 676.567C352.51 676.539 352.48 676.409 352.536 676.175C352.592 675.942 352.678 675.839 352.795 675.867C353.845 676.12 354.646 676.21 355.199 676.137C355.76 676.025 356.185 675.716 356.471 675.209C356.797 674.711 357.1 673.879 357.38 672.712L359.653 663.262C360.205 660.967 360.165 659.168 359.532 657.864C358.939 656.569 357.728 655.702 355.9 655.262C354.694 654.972 353.39 655.008 351.986 655.37C350.631 655.702 349.312 656.31 348.03 657.195L345.013 669.737C344.732 670.904 344.604 671.778 344.629 672.36C344.692 672.951 344.949 673.425 345.398 673.78C345.857 674.096 346.611 674.38 347.662 674.632C347.778 674.661 347.808 674.791 347.752 675.025C347.696 675.258 347.61 675.361 347.493 675.333C346.599 675.117 345.903 674.93 345.407 674.769L342.271 673.953L339.048 673.24C338.534 673.157 337.829 673.008 336.934 672.793C336.818 672.765 336.787 672.634 336.843 672.401C336.9 672.167 336.986 672.065 337.103 672.093C338.153 672.345 338.954 672.435 339.506 672.362C340.068 672.251 340.492 671.941 340.779 671.434C341.104 670.936 341.407 670.104 341.688 668.938L344.466 657.387C344.784 656.065 344.858 655.074 344.687 654.416C344.516 653.758 344.061 653.34 343.322 653.162C342.7 653.013 341.58 653.052 339.962 653.28L339.845 653.252C339.689 653.214 339.591 653.108 339.551 652.934C339.559 652.73 339.65 652.608 339.824 652.568L347.363 650.987L347.727 651.013C348.077 651.097 348.339 651.633 348.513 652.621C348.686 653.609 348.605 654.803 348.268 656.203C350.158 654.848 351.92 653.934 353.555 653.464C355.23 653.003 356.845 652.959 358.4 653.333C360.578 653.857 362.106 654.862 362.982 656.348C363.859 657.835 364.017 659.744 363.455 662.078L360.705 673.512C360.425 674.679 360.297 675.553 360.321 676.135C360.385 676.726 360.641 677.199 361.091 677.554C361.55 677.87 362.304 678.154 363.354 678.407Z"
        stroke="#1A528A" mask="url(#path-5-outside-1)" />
    <path
        d="M383.505 682.92C380.93 682.561 378.848 681.705 377.26 680.353C375.677 678.96 374.594 677.315 374.011 675.416C373.428 673.517 373.275 671.577 373.551 669.597C373.905 667.061 374.846 664.951 376.373 663.266C377.907 661.541 379.733 660.322 381.852 659.608C384.016 658.86 386.148 658.633 388.247 658.926C389.991 659.169 391.525 659.747 392.852 660.659C394.224 661.537 394.838 662.491 394.694 663.521C394.622 664.036 394.361 664.464 393.909 664.805C393.503 665.111 392.983 665.221 392.349 665.132C391.279 664.983 390.499 664.208 390.008 662.806C389.603 661.942 389.132 661.27 388.593 660.791C388.054 660.312 387.23 659.995 386.121 659.84C383.902 659.531 382.037 660.159 380.526 661.725C379.06 663.257 378.126 665.469 377.722 668.361C377.258 671.689 377.708 674.539 379.073 676.91C380.439 679.282 382.785 680.7 386.113 681.164C388.529 681.501 390.641 681.13 392.448 680.049L392.507 680.057C392.626 680.074 392.717 680.147 392.779 680.277C392.882 680.413 392.888 680.514 392.797 680.582C391.239 681.617 389.706 682.332 388.197 682.727C386.733 683.088 385.169 683.153 383.505 682.92Z"
        stroke="#1A528A" mask="url(#path-5-outside-1)" />
    <path
        d="M421.743 681.985C421.863 681.991 421.959 682.076 422.031 682.24C422.144 682.366 422.158 682.487 422.072 682.602C419.319 684.787 416.345 685.799 413.149 685.639C410.832 685.522 408.881 684.884 407.298 683.723C405.714 682.562 404.527 681.081 403.736 679.279C402.985 677.479 402.66 675.58 402.76 673.583C402.879 671.226 403.546 669.097 404.763 667.195C405.982 665.254 407.578 663.772 409.552 662.75C411.568 661.689 413.734 661.217 416.051 661.334C418.288 661.446 419.976 662.132 421.115 663.39C422.253 664.649 422.768 666.357 422.66 668.514C422.631 669.073 422.552 669.47 422.42 669.704C422.328 669.939 422.162 670.051 421.922 670.039L407.058 669.353C406.934 670.228 406.858 670.945 406.83 671.504C406.655 674.98 407.333 677.837 408.862 680.077C410.392 682.316 412.635 683.51 415.591 683.659C416.79 683.719 417.817 683.61 418.672 683.333C419.567 683.057 420.57 682.607 421.683 681.982L421.743 681.985ZM414.014 662.433C412.296 662.347 410.848 662.855 409.672 663.957C408.497 665.02 407.679 666.561 407.217 668.58L418.615 668.912C418.717 666.874 418.355 665.314 417.528 664.231C416.703 663.109 415.532 662.509 414.014 662.433Z"
        stroke="#1A528A" mask="url(#path-5-outside-1)" />
    <path
        d="M457.326 665.857C457.215 664.622 457.014 663.737 456.725 663.201C456.435 662.665 455.923 662.329 455.188 662.195C454.493 662.057 453.369 662.058 451.815 662.198C451.695 662.209 451.625 662.095 451.603 661.856C451.582 661.616 451.631 661.492 451.75 661.481C452.905 661.377 453.824 661.314 454.504 661.293L458.573 660.986L462.572 660.565C463.245 660.464 464.18 660.359 465.375 660.251C465.494 660.241 465.565 660.355 465.586 660.594C465.608 660.833 465.559 660.958 465.439 660.968C463.965 661.101 462.881 661.32 462.185 661.624C461.526 661.884 461.082 662.305 460.853 662.888C460.625 663.471 460.565 664.36 460.672 665.555L461.88 678.941C461.992 680.176 462.192 681.062 462.481 681.598C462.771 682.134 463.263 682.471 463.958 682.609C464.693 682.744 465.838 682.741 467.391 682.601C467.511 682.59 467.582 682.704 467.603 682.943C467.625 683.182 467.576 683.307 467.456 683.318C466.301 683.422 465.383 683.485 464.702 683.506L460.633 683.813L456.635 684.234C455.961 684.335 455.027 684.439 453.832 684.547C453.712 684.558 453.641 684.444 453.62 684.205C453.598 683.966 453.647 683.841 453.767 683.83C455.241 683.697 456.307 683.5 456.967 683.24C457.662 682.936 458.124 682.493 458.353 681.91C458.581 681.327 458.642 680.438 458.534 679.243L457.326 665.857Z"
        stroke="#1A528A" mask="url(#path-5-outside-1)" />
    <path
        d="M485.365 674.186C482.529 674.689 480.279 674.256 478.614 672.885C476.949 671.515 475.931 669.786 475.561 667.699C475.247 665.926 475.44 664.267 476.141 662.721C476.841 661.175 477.929 659.865 479.404 658.791C480.919 657.709 482.68 656.991 484.689 656.634C488.312 655.992 491.411 656.742 493.985 658.885C496.598 661.022 498.272 664.158 499.005 668.293C499.641 671.877 499.443 675.569 498.41 679.367C497.378 683.166 495.527 686.704 492.859 689.98C490.197 693.296 486.835 695.984 482.772 698.046C482.661 698.106 482.529 698.048 482.376 697.872C482.262 697.689 482.277 697.544 482.421 697.438C485.857 695.284 488.638 692.638 490.762 689.499C492.887 686.36 494.319 683.099 495.06 679.718C495.84 676.329 495.965 673.139 495.434 670.145C495.064 668.058 494.375 666.007 493.367 663.992C492.399 661.97 491.1 660.372 489.47 659.199C487.873 657.979 486.03 657.554 483.943 657.925C482.052 658.26 480.684 659.132 479.837 660.542C478.99 661.952 478.759 663.739 479.143 665.906C479.527 668.072 480.396 669.766 481.751 670.988C483.137 672.164 484.874 672.567 486.962 672.197C487.986 672.015 488.864 671.697 489.596 671.242C490.327 670.787 491.112 670.059 491.95 669.057C491.983 669.011 492.038 668.981 492.117 668.967C492.235 668.946 492.364 668.984 492.503 669.081C492.642 669.178 492.699 669.27 492.673 669.355C491.109 671.989 488.673 673.599 485.365 674.186Z"
        stroke="#1A528A" mask="url(#path-5-outside-1)" />
    <path
        d="M520.587 651.675C522.805 652.169 524.636 652.69 526.08 653.238C527.551 653.736 528.871 654.506 530.039 655.547C531.206 656.588 532.03 657.956 532.51 659.649C533.043 661.535 532.97 663.406 532.29 665.261C531.648 667.106 530.509 668.737 528.874 670.157C527.277 671.565 525.382 672.579 523.188 673.2C520.956 673.832 518.873 673.965 516.94 673.597C514.996 673.192 513.341 672.413 511.976 671.261C510.638 670.06 509.735 668.632 509.267 666.977C508.624 664.706 508.77 662.358 509.704 659.932C510.677 657.494 512.116 655.383 514.022 653.596C512.259 653.097 510.832 652.462 509.741 651.69C508.649 650.918 507.913 649.859 507.531 648.512C507.106 647.011 507.209 645.61 507.838 644.309C508.468 643.008 509.404 641.912 510.648 641.019C511.881 640.088 513.191 639.427 514.576 639.034C516.116 638.599 517.55 638.525 518.879 638.814C520.235 639.054 521.352 639.548 522.23 640.297C523.145 641.036 523.745 641.905 524.028 642.906C524.377 644.138 524.25 645.525 523.647 647.067C523.072 648.56 522.052 650.096 520.587 651.675ZM513.625 640.301C512.278 640.683 511.271 641.383 510.604 642.404C509.975 643.413 509.846 644.572 510.216 645.881C510.674 647.497 511.676 648.689 513.224 649.457C514.761 650.186 516.971 650.87 519.854 651.509C520.543 650.274 520.988 649.129 521.189 648.075C521.378 646.982 521.315 645.877 520.999 644.761C520.487 642.952 519.534 641.642 518.14 640.831C516.785 640.009 515.28 639.833 513.625 640.301ZM524.511 671.704C526.627 671.104 528.174 669.96 529.151 668.27C530.166 666.569 530.363 664.622 529.742 662.428C529.241 660.658 528.387 659.257 527.181 658.227C525.974 657.196 524.641 656.451 523.181 655.992C521.748 655.483 519.859 654.978 517.514 654.478L514.977 653.887C513.682 655.334 512.816 656.972 512.377 658.801C511.977 660.618 512.05 662.489 512.594 664.414C513.085 666.146 513.927 667.653 515.122 668.936C516.316 670.219 517.737 671.127 519.384 671.658C521.031 672.19 522.74 672.205 524.511 671.704Z"
        stroke="#1A528A" mask="url(#path-5-outside-1)" />
    <path
        d="M552.078 640.662C554.335 640.925 556.21 641.255 557.703 641.65C559.218 641.994 560.609 642.624 561.878 643.539C563.147 644.454 564.107 645.73 564.759 647.365C565.484 649.185 565.604 651.054 565.119 652.969C564.671 654.87 563.706 656.611 562.226 658.191C560.783 659.756 559.002 660.961 556.884 661.805C554.729 662.663 552.671 663.01 550.71 662.844C548.735 662.64 547.009 662.036 545.532 661.032C544.077 659.975 543.032 658.648 542.395 657.05C541.522 654.857 541.425 652.506 542.104 649.997C542.821 647.472 544.034 645.223 545.745 643.25C543.941 642.935 542.456 642.45 541.291 641.795C540.125 641.14 539.284 640.162 538.766 638.861C538.188 637.412 538.146 636.008 538.638 634.65C539.13 633.291 539.948 632.104 541.094 631.088C542.224 630.034 543.458 629.241 544.796 628.708C546.282 628.116 547.701 627.895 549.053 628.046C550.427 628.144 551.589 628.521 552.539 629.176C553.526 629.816 554.212 630.619 554.597 631.585C555.071 632.774 555.087 634.167 554.647 635.763C554.229 637.308 553.372 638.941 552.078 640.662ZM543.981 630.067C542.68 630.585 541.751 631.386 541.192 632.469C540.671 633.538 540.662 634.704 541.165 635.968C541.787 637.529 542.907 638.611 544.525 639.215C546.129 639.781 548.398 640.234 551.331 640.572C551.89 639.273 552.215 638.089 552.305 637.019C552.381 635.913 552.204 634.82 551.775 633.743C551.079 631.996 549.996 630.792 548.526 630.128C547.094 629.451 545.579 629.43 543.981 630.067ZM558.045 660.18C560.089 659.365 561.509 658.067 562.307 656.286C563.141 654.489 563.136 652.532 562.292 650.414C561.611 648.705 560.618 647.4 559.312 646.499C558.006 645.599 556.603 644.995 555.103 644.689C553.625 644.33 551.694 644.023 549.31 643.767L546.726 643.44C545.587 645.014 544.894 646.732 544.646 648.596C544.436 650.445 544.701 652.299 545.441 654.157C546.107 655.829 547.101 657.242 548.421 658.395C549.742 659.548 551.249 660.304 552.942 660.663C554.635 661.022 556.336 660.861 558.045 660.18Z"
        stroke="#1A528A" mask="url(#path-5-outside-1)" />
    <path
        d="M289.421 335.85C295.001 335.85 299.501 337.83 302.921 341.79C306.341 345.57 308.051 350.25 308.051 355.83C308.051 359.43 307.241 363.66 305.621 368.52C304.001 373.2 302.291 377.07 300.491 380.13C299.771 380.67 298.961 380.76 298.061 380.4C297.341 380.04 297.071 379.41 297.251 378.51C298.331 375.27 298.781 372.03 298.601 368.79C298.421 365.55 297.521 362.58 295.901 359.88C294.281 357.18 291.761 355.02 288.341 353.4C285.101 351.6 280.961 350.7 275.921 350.7C269.081 350.7 263.141 351.96 258.101 354.48C253.241 356.82 248.741 361.05 244.601 367.17C240.461 373.11 236.591 381.12 232.991 391.2C229.391 401.28 225.701 413.88 221.921 429C215.621 453.12 206.891 471.75 195.731 484.89C203.831 487.95 212.291 490.74 221.111 493.26C230.111 495.6 240.011 496.77 250.811 496.77C259.811 496.77 266.651 495.15 271.331 491.91C276.011 488.67 279.881 483.99 282.941 477.87C283.661 477.33 284.291 477.33 284.831 477.87C285.551 478.23 285.821 478.95 285.641 480.03C281.321 489.75 275.561 497.22 268.361 502.44C261.161 507.48 251.531 510 239.471 510C228.851 510 219.131 508.47 210.311 505.41C201.671 502.17 193.211 498.75 184.931 495.15C171.791 505.05 155.681 510 136.601 510C129.401 510 124.001 508.74 120.401 506.22C116.801 503.7 115.001 500.55 115.001 496.77C115.001 494.43 115.811 491.91 117.431 489.21C119.231 486.51 121.661 483.99 124.721 481.65C127.781 479.31 131.381 477.33 135.521 475.71C139.841 474.09 144.611 473.28 149.831 473.28C156.491 473.28 162.971 474.18 169.271 475.98C175.751 477.6 182.321 479.67 188.981 482.19C192.041 477.15 195.011 470.85 197.891 463.29C200.771 455.73 203.651 446.46 206.531 435.48C210.671 420 215.621 406.14 221.381 393.9C227.141 381.48 233.531 371.04 240.551 362.58C247.751 353.94 255.401 347.37 263.501 342.87C271.781 338.19 280.421 335.85 289.421 335.85ZM148.751 502.98C155.231 502.98 160.991 502.35 166.031 501.09C171.251 499.65 175.931 496.95 180.071 492.99C173.411 490.11 166.661 487.59 159.821 485.43C152.981 483.27 145.691 482.19 137.951 482.19C129.671 482.19 125.531 484.98 125.531 490.56C125.531 494.16 127.511 497.13 131.471 499.47C135.611 501.81 141.371 502.98 148.751 502.98Z"
        fill="#D6743E" />
    <path
        d="M659.476 333C662.309 333 664.642 333.75 666.476 335.25C668.476 336.75 669.726 339.25 670.226 342.75C670.726 346.083 670.559 350.583 669.726 356.25C668.892 361.75 667.142 368.583 664.476 376.75C661.142 387.083 658.142 396.417 655.476 404.75C652.809 412.917 650.809 421.167 649.476 429.5C648.476 436.667 648.976 442.083 650.976 445.75C652.976 449.417 657.226 451.25 663.726 451.25C678.226 451.25 693.309 441.667 708.976 422.5C724.642 403.167 741.892 374.667 760.726 337C762.559 335.333 764.642 334.25 766.976 333.75C769.476 333.25 771.809 333 773.976 333C775.976 333 776.809 333.833 776.476 335.5C759.309 372.167 743.142 402.75 727.976 427.25C712.976 451.583 698.392 471.083 684.226 485.75C670.059 500.417 656.059 510.75 642.226 516.75C628.392 522.917 614.059 526 599.226 526C583.559 526 571.476 522 562.976 514C554.476 506 550.226 495.667 550.226 483C550.226 476.667 551.476 470.5 553.976 464.5C556.642 458.5 560.392 453.083 565.226 448.25C570.226 443.25 576.309 439.083 583.476 435.75C590.642 432.417 598.892 430.25 608.226 429.25C609.059 429.417 609.392 429.833 609.226 430.5C609.226 431.167 608.809 431.917 607.976 432.75C600.309 433.75 593.726 435.5 588.226 438C582.892 440.5 578.476 443.667 574.976 447.5C571.476 451.333 568.892 455.75 567.226 460.75C565.726 465.583 564.976 470.75 564.976 476.25C564.976 488.917 568.809 498.833 576.476 506C584.142 513.333 595.226 517 609.726 517C620.392 517 630.476 515.167 639.976 511.5C649.642 507.833 659.059 501.75 668.226 493.25C677.392 484.583 686.642 473.167 695.976 459C705.309 444.833 715.142 427.25 725.476 406.25C720.809 413.917 715.642 421.083 709.976 427.75C704.476 434.25 698.642 440 692.476 445C686.476 449.833 680.309 453.667 673.976 456.5C667.642 459.167 661.392 460.5 655.226 460.5C647.226 460.5 641.476 458.417 637.976 454.25C634.476 449.917 633.226 443.833 634.226 436C635.559 426.833 637.559 417.667 640.226 408.5C643.059 399.333 645.809 390.5 648.476 382C651.142 373.667 652.976 367 653.976 362C655.142 356.833 655.642 352.833 655.476 350C655.309 347.167 654.559 345.333 653.226 344.5C652.059 343.5 650.476 343 648.476 343C644.642 343 640.976 344.5 637.476 347.5C634.142 350.333 631.559 353.25 629.726 356.25C629.059 356.75 628.392 356.75 627.726 356.25C627.226 355.75 627.059 355.083 627.226 354.25C628.726 351.583 630.642 349 632.976 346.5C635.476 343.833 638.142 341.5 640.976 339.5C643.809 337.5 646.809 335.917 649.976 334.75C653.142 333.583 656.309 333 659.476 333Z"
        fill="#D6743E" />
</svg>