<svg width="850" height="850" viewBox="0 0 756 601" fill="none" xmlns="http://www.w3.org/2000/svg">
    <path
        d="M635.872 30.2003L635.869 30.2035L531.868 145.782C529.34 148.606 525.915 150.248 522.36 150.649L520.027 150.912L469.979 208.867C465.698 203.824 461.015 199.134 455.978 194.847L505.58 137.33L505.639 135.195C505.737 131.667 506.962 128.269 509.411 125.549L613.442 9.9925C619.012 3.79728 628.565 3.30213 634.76 8.87472C640.947 14.4404 641.459 23.9998 635.872 30.2003Z"
        fill="#1A528A" />
    <path
        d="M89.6976 483.862C64.8067 469.713 46.5208 464.821 33.7555 465.381C21.4592 465.921 14.1228 471.482 10.0637 479.601C5.79131 488.147 4.86465 500.188 7.39099 513.561C9.89762 526.83 15.6938 540.764 24.0165 552.649C55.0141 596.916 100.57 595.415 127.02 585.652C139.917 580.892 153.399 570.496 163.941 560.865C169.141 556.113 173.494 551.671 176.543 548.42L312.404 391.335C306.827 387.853 301.553 383.934 296.629 379.625L159.757 538.34L155.197 533.372C148.39 525.957 133.359 514.335 119.535 504.277C109.838 497.221 100.121 489.835 89.6976 483.862Z"
        fill="#1A528A" />
    <path
        d="M105.229 27.4228L105.226 27.4196C99.6389 21.2191 100.15 11.6597 106.338 6.09405C112.533 0.521461 122.086 1.01661 127.656 7.21182L231.687 122.769C234.136 125.489 235.361 128.887 235.459 132.415L235.518 134.549L292.545 200.676C287.746 205.274 283.322 210.261 279.323 215.586L221.071 148.132L218.738 147.868C215.183 147.467 211.758 145.825 209.23 143.002L105.229 27.4228Z"
        fill="#1A528A" />
    <path
        d="M451.681 385.208C446.488 389.24 440.96 392.861 435.144 396.024L561.033 541.785C561.839 542.694 563.032 544.015 564.555 545.639C567.604 548.89 571.956 553.332 577.157 558.084C587.698 567.716 601.181 578.111 614.078 582.871C640.528 592.634 686.084 594.135 717.081 549.868C725.404 537.983 731.2 524.049 733.707 510.78C736.233 497.407 735.307 485.366 731.034 476.82C726.975 468.701 719.639 463.14 707.342 462.601C694.578 462.04 676.294 466.932 651.405 481.079C651.317 481.138 646.655 483.874 646.481 483.991C646.134 484.226 645.621 484.574 644.961 485.023C643.642 485.922 641.738 487.225 639.407 488.84C634.742 492.07 628.376 496.539 621.562 501.496C607.739 511.555 592.707 523.177 585.901 530.592L581.341 535.56L491.602 431.5L451.681 385.208Z"
        fill="#1A528A" />
    <path fill-rule="evenodd" clip-rule="evenodd"
        d="M380.5 380C430.482 380 471 339.482 471 289.5C471 239.518 430.482 199 380.5 199C330.518 199 290 239.518 290 289.5C290 339.482 330.518 380 380.5 380ZM380.5 393C437.661 393 484 346.661 484 289.5C484 232.339 437.661 186 380.5 186C323.339 186 277 232.339 277 289.5C277 346.661 323.339 393 380.5 393Z"
        fill="#1A528A" />
    <path
        d="M370.729 236.672C368.591 234.518 365.57 233.497 362.634 233.497C359.698 233.497 356.677 234.518 354.539 236.671C353.154 238.065 353.154 240.223 354.538 241.618C355.928 243.019 358.089 243.018 359.479 241.618L359.527 241.57L359.571 241.517C360.906 239.903 363.799 239.727 365.685 241.518C366.399 242.626 366.959 243.886 366.959 245.013C366.959 246.403 366.615 247.574 365.788 248.407C364.403 249.802 364.403 251.96 365.788 253.354C366.321 253.891 367 254.062 367.407 254.13C367.833 254.202 368.239 254.202 368.439 254.202L368.459 254.202L368.495 254.202C368.939 254.202 369.883 254.204 370.728 253.355L370.787 253.296L370.839 253.23C372.576 251.043 373.977 248.294 373.977 245.013C373.977 241.862 373.068 239.027 370.729 236.672Z"
        fill="#1A528A" />
    <path
        d="M430.095 313.787L430.301 313.528C432.037 311.341 433.438 308.593 433.438 305.311C433.438 302.16 432.529 299.325 430.19 296.97C428.052 294.816 425.031 293.795 422.095 293.795C419.159 293.795 416.138 294.816 413.999 296.97C412.614 298.365 412.616 300.522 413.999 301.916C415.389 303.317 417.55 303.317 418.941 301.916L418.988 301.868L419.032 301.816C420.367 300.201 423.26 300.025 425.147 301.816C425.86 302.925 426.42 304.184 426.42 305.311C426.42 306.702 426.076 307.873 425.249 308.706C423.864 310.1 423.865 312.258 425.249 313.652C425.782 314.189 426.462 314.36 426.868 314.429C427.295 314.5 427.7 314.5 427.9 314.5H427.92C428.232 314.5 428.517 314.429 428.693 314.378C428.891 314.321 429.081 314.251 429.234 314.189C429.53 314.07 429.811 313.93 430.095 313.787Z"
        fill="#1A528A" />
    <path
        d="M398.963 236.233C400.7 234.046 402.1 231.298 402.1 228.016C402.1 224.865 401.191 222.03 398.853 219.675C396.714 217.521 393.693 216.5 390.757 216.5C387.821 216.5 384.8 217.521 382.662 219.675C381.277 221.069 381.278 223.227 382.661 224.621C384.051 226.022 386.213 226.021 387.603 224.621L387.651 224.573L387.694 224.52C389.03 222.906 391.922 222.73 393.809 224.521C394.523 225.63 395.082 226.889 395.082 228.016C395.082 229.406 394.738 230.577 393.911 231.411C392.526 232.805 392.527 234.963 393.911 236.357C394.444 236.894 395.124 237.065 395.531 237.134C395.957 237.205 396.363 237.205 396.563 237.205L396.582 237.205C397.245 237.205 397.776 237.036 398.161 236.843C398.475 236.685 398.71 236.472 398.963 236.233Z"
        fill="#1A528A" />
    <path
        d="M444.362 281.963C446.099 279.775 447.5 277.027 447.5 273.746C447.5 270.607 446.598 267.782 444.28 265.432C440.034 260.715 432.624 260.809 428.062 265.404C426.676 266.799 426.678 268.957 428.061 270.35C429.451 271.751 431.612 271.751 433.003 270.351C434.793 268.548 437.388 268.514 439.208 270.25C439.922 271.359 440.482 272.619 440.482 273.746C440.482 275.136 440.138 276.307 439.311 277.14C437.926 278.534 437.926 280.693 439.311 282.087C439.844 282.624 440.524 282.795 440.93 282.863C441.357 282.935 441.762 282.935 441.962 282.934H441.982C442.645 282.934 443.176 282.766 443.56 282.572C443.876 282.413 444.121 282.214 444.362 281.963Z"
        fill="#1A528A" />
    <path
        d="M407.719 257.339C403.473 252.622 396.063 252.716 391.501 257.311C390.115 258.705 390.117 260.863 391.5 262.257C392.89 263.658 395.051 263.658 396.442 262.257C398.266 260.42 400.926 260.42 402.75 262.257C404.579 264.1 404.58 266.799 402.75 268.642C401.365 270.036 401.365 272.194 402.75 273.588C403.283 274.125 403.963 274.297 404.369 274.365C404.796 274.436 405.201 274.436 405.401 274.436L405.421 274.436C405.769 274.436 406.058 274.349 406.252 274.276L407 274L407.634 273.643C412.332 269.385 412.257 261.94 407.719 257.339Z"
        fill="#1A528A" />
    <path
        d="M421.894 230.968C418.757 230.968 415.937 231.887 413.598 234.244C412.213 235.638 412.213 237.796 413.597 239.19C414.947 240.55 417.023 240.589 418.415 239.309C419.521 238.583 420.776 238.015 421.894 238.015C423.267 238.015 424.424 238.359 425.249 239.19C427.079 241.033 427.079 243.732 425.249 245.575C423.864 246.969 423.865 249.127 425.249 250.521C425.782 251.058 426.462 251.229 426.868 251.298C427.295 251.369 427.7 251.369 427.9 251.369L428.969 251.289C429.174 251.248 429.522 251.159 429.851 250.93C430.053 250.788 430.705 250.379 431 250C434.5 245.5 434.666 238.752 430.19 234.244L430.131 234.185L430.066 234.133C427.895 232.383 425.161 230.968 421.894 230.968Z"
        fill="#1A528A" />
    <mask id="path-4-outside-1" maskUnits="userSpaceOnUse" x="216" y="519" width="314" height="82" fill="black">
        <rect fill="white" x="216" y="519" width="314" height="82" />
        <path
            d="M228.015 533.094C227.404 534.571 227.401 535.954 228.004 537.242C228.625 538.487 229.662 539.98 231.117 541.719C232.279 543.09 233.147 544.215 233.721 545.096C234.338 545.993 234.758 547.008 234.982 548.138C235.206 549.269 235.056 550.467 234.532 551.733C233.642 553.885 232.09 555.368 229.876 556.181C227.663 556.995 225.185 556.834 222.444 555.698C220.208 554.773 218.446 553.301 217.156 551.284C216.973 551.011 216.951 550.705 217.091 550.368L219.006 545.378C219.059 545.252 219.19 545.232 219.401 545.319C219.672 545.382 219.802 545.485 219.792 545.629C219.72 548.071 220.09 550.102 220.902 551.723C221.755 553.362 223.026 554.531 224.713 555.229C226.104 555.806 227.299 555.905 228.295 555.526C229.291 555.148 230.018 554.287 230.474 552.944C231.096 551.323 231.096 549.89 230.475 548.644C229.913 547.374 228.876 545.882 227.362 544.167C226.25 542.916 225.385 541.841 224.768 540.943C224.194 540.063 223.795 539.057 223.571 537.927C223.389 536.813 223.569 535.603 224.11 534.295C225.053 532.016 226.612 530.635 228.788 530.152C231.023 529.645 233.301 529.871 235.62 530.832C237.307 531.53 238.716 532.484 239.846 533.694C240.064 533.883 240.168 534.049 240.158 534.193C240.207 534.313 240.197 534.457 240.127 534.626C239.778 535.47 239.486 536.115 239.252 536.562L238.089 539.194C238.054 539.278 237.91 539.268 237.657 539.163C237.404 539.058 237.295 538.964 237.33 538.879C237.697 537.993 237.7 537.031 237.339 535.992C236.996 534.911 236.414 533.928 235.594 533.045C234.774 532.162 233.858 531.51 232.845 531.091C231.791 530.655 230.825 530.601 229.948 530.929C229.131 531.233 228.487 531.955 228.015 533.094Z" />
        <path
            d="M260.991 531.941C260.081 531.637 259.446 531.161 259.085 530.511C258.767 529.876 258.753 529.125 259.041 528.258C259.33 527.392 259.792 526.799 260.427 526.482C261.105 526.178 261.899 526.178 262.809 526.481C263.675 526.77 264.267 527.232 264.584 527.867C264.902 528.503 264.916 529.254 264.628 530.12C264.339 530.987 263.877 531.579 263.242 531.897C262.607 532.215 261.857 532.229 260.991 531.941ZM244.453 563.397C244.367 563.369 244.367 563.224 244.453 562.964C244.54 562.704 244.626 562.589 244.713 562.617C245.882 563.007 246.784 563.188 247.419 563.159C248.112 563.101 248.668 562.805 249.086 562.27C249.519 561.693 249.945 560.775 250.364 559.519L254.411 547.365C254.93 545.806 255.132 544.621 255.016 543.813C254.944 543.018 254.518 542.491 253.739 542.231C252.959 541.972 251.884 541.95 250.513 542.167L250.448 542.145C250.274 542.087 250.181 541.936 250.166 541.69C250.152 541.445 250.224 541.3 250.383 541.257L260.126 540.173L260.407 540.194C260.494 540.223 260.58 540.324 260.667 540.497C260.768 540.627 260.797 540.757 260.754 540.887C260.653 541.191 260.342 542.05 259.823 543.465C259.304 544.881 258.719 546.563 258.07 548.513L254.001 560.731C253.568 562.031 253.359 563.021 253.374 563.699C253.388 564.378 253.634 564.941 254.11 565.389C254.601 565.793 255.431 566.19 256.6 566.58C256.73 566.623 256.752 566.775 256.665 567.035C256.579 567.295 256.47 567.403 256.34 567.36C255.344 567.028 254.551 566.739 253.959 566.494L250.473 565.26L246.943 564.155C246.323 563.996 245.493 563.744 244.453 563.397Z" />
        <path
            d="M298.425 577.551C298.558 577.583 298.593 577.733 298.529 577.999C298.464 578.265 298.366 578.383 298.233 578.351C297.212 578.105 296.419 577.891 295.852 577.707L292.274 576.776L288.596 575.961C288.009 575.867 287.204 575.697 286.184 575.451C286.05 575.419 286.016 575.27 286.08 575.003C286.144 574.737 286.243 574.62 286.376 574.652C287.574 574.94 288.488 575.043 289.119 574.959C289.76 574.832 290.244 574.479 290.571 573.9C290.942 573.331 291.288 572.381 291.608 571.049L294.202 560.259C294.832 557.64 294.786 555.585 294.064 554.096C293.386 552.618 292.005 551.628 289.919 551.126C288.543 550.795 287.054 550.836 285.453 551.249C283.906 551.628 282.401 552.323 280.938 553.333L277.495 567.653C277.175 568.985 277.029 569.983 277.057 570.648C277.129 571.323 277.422 571.863 277.935 572.268C278.458 572.629 279.319 572.954 280.518 573.242C280.651 573.274 280.685 573.423 280.621 573.69C280.557 573.956 280.459 574.073 280.325 574.041C279.305 573.796 278.511 573.581 277.945 573.398L274.366 572.466L270.689 571.652C270.101 571.557 269.297 571.387 268.276 571.142C268.143 571.109 268.109 570.96 268.173 570.694C268.237 570.427 268.335 570.31 268.468 570.342C269.667 570.631 270.581 570.733 271.211 570.65C271.852 570.522 272.336 570.169 272.663 569.59C273.035 569.022 273.38 568.072 273.701 566.74L276.871 553.552C277.234 552.042 277.318 550.912 277.123 550.16C276.928 549.409 276.409 548.932 275.566 548.729C274.856 548.558 273.577 548.602 271.731 548.863L271.598 548.831C271.42 548.788 271.308 548.667 271.262 548.468C271.271 548.235 271.375 548.096 271.574 548.05L280.177 546.245L280.592 546.275C280.992 546.371 281.291 546.983 281.489 548.111C281.687 549.239 281.594 550.602 281.21 552.201C283.366 550.653 285.377 549.61 287.243 549.073C289.154 548.546 290.997 548.497 292.772 548.924C295.257 549.522 297 550.669 298.001 552.366C299.001 554.063 299.181 556.244 298.541 558.908L295.402 571.962C295.082 573.294 294.936 574.293 294.964 574.957C295.037 575.632 295.329 576.172 295.842 576.578C296.366 576.938 297.227 577.263 298.425 577.551Z" />
        <path
            d="M321.42 582.705C318.482 582.294 316.106 581.317 314.294 579.773C312.488 578.183 311.252 576.304 310.586 574.137C309.921 571.969 309.746 569.754 310.061 567.492C310.465 564.597 311.539 562.188 313.282 560.264C315.031 558.295 317.115 556.903 319.533 556.088C322.003 555.234 324.436 554.974 326.832 555.309C328.821 555.587 330.572 556.246 332.086 557.288C333.652 558.29 334.352 559.379 334.188 560.555C334.106 561.143 333.808 561.632 333.293 562.021C332.829 562.371 332.235 562.496 331.512 562.395C330.292 562.225 329.401 561.339 328.841 559.739C328.379 558.753 327.841 557.986 327.226 557.439C326.611 556.892 325.671 556.53 324.405 556.353C321.873 556 319.745 556.717 318.021 558.505C316.348 560.254 315.281 562.78 314.821 566.082C314.291 569.881 314.805 573.135 316.363 575.842C317.921 578.55 320.599 580.169 324.396 580.699C327.154 581.084 329.563 580.66 331.625 579.426L331.693 579.436C331.828 579.455 331.932 579.538 332.004 579.687C332.12 579.841 332.127 579.957 332.024 580.035C330.246 581.216 328.496 582.033 326.774 582.484C325.103 582.896 323.319 582.97 321.42 582.705Z" />
        <path
            d="M365.055 581.637C365.192 581.643 365.301 581.74 365.383 581.927C365.513 582.071 365.529 582.209 365.431 582.341C362.289 584.836 358.895 585.991 355.248 585.808C352.604 585.675 350.378 584.946 348.571 583.621C346.764 582.295 345.409 580.604 344.506 578.547C343.65 576.492 343.279 574.324 343.393 572.043C343.528 569.352 344.29 566.921 345.679 564.75C347.069 562.534 348.891 560.842 351.143 559.675C353.444 558.464 355.916 557.925 358.56 558.058C361.113 558.186 363.039 558.969 364.338 560.406C365.637 561.843 366.224 563.793 366.101 566.256C366.069 566.895 365.978 567.348 365.827 567.614C365.722 567.883 365.533 568.011 365.259 567.997L348.297 567.214C348.156 568.213 348.069 569.032 348.037 569.67C347.838 573.638 348.611 576.901 350.356 579.458C352.102 582.015 354.662 583.378 358.035 583.548C359.403 583.616 360.574 583.492 361.55 583.175C362.571 582.861 363.717 582.347 364.987 581.633L365.055 581.637ZM356.235 559.313C354.274 559.215 352.623 559.795 351.28 561.054C349.939 562.267 349.006 564.026 348.479 566.331L361.485 566.71C361.602 564.384 361.188 562.603 360.245 561.367C359.304 560.085 357.967 559.4 356.235 559.313Z" />
        <path
            d="M405.66 563.223C405.533 561.813 405.304 560.802 404.974 560.19C404.644 559.578 404.059 559.195 403.221 559.041C402.427 558.884 401.144 558.885 399.371 559.045C399.235 559.057 399.154 558.927 399.13 558.654C399.105 558.381 399.161 558.238 399.297 558.226C400.616 558.107 401.663 558.036 402.44 558.011L407.083 557.661L411.646 557.18C412.415 557.065 413.481 556.946 414.845 556.823C414.981 556.81 415.062 556.94 415.086 557.213C415.111 557.486 415.055 557.629 414.919 557.641C413.237 557.793 411.999 558.042 411.205 558.389C410.453 558.686 409.946 559.168 409.685 559.833C409.425 560.499 409.356 561.514 409.479 562.878L410.857 578.161C410.984 579.571 411.213 580.582 411.543 581.194C411.873 581.807 412.435 582.191 413.229 582.349C414.067 582.503 415.373 582.499 417.146 582.339C417.283 582.327 417.363 582.457 417.388 582.73C417.412 583.003 417.356 583.146 417.22 583.158C415.902 583.277 414.854 583.349 414.077 583.373L409.434 583.723L404.871 584.204C404.103 584.319 403.036 584.439 401.672 584.562C401.536 584.574 401.456 584.444 401.431 584.171C401.406 583.898 401.462 583.755 401.599 583.743C403.281 583.591 404.498 583.367 405.25 583.069C406.044 582.723 406.571 582.217 406.832 581.551C407.093 580.885 407.162 579.87 407.038 578.506L405.66 563.223Z" />
        <path
            d="M437.656 572.732C434.42 573.307 431.852 572.812 429.953 571.247C428.053 569.683 426.891 567.709 426.469 565.325C426.11 563.302 426.331 561.407 427.13 559.642C427.93 557.877 429.171 556.381 430.855 555.155C432.583 553.92 434.593 553.1 436.885 552.693C441.02 551.959 444.556 552.816 447.493 555.263C450.475 557.702 452.385 561.283 453.222 566.004C453.947 570.096 453.721 574.311 452.543 578.648C451.365 582.985 449.253 587.024 446.208 590.765C443.17 594.551 439.334 597.62 434.698 599.974C434.571 600.043 434.42 599.977 434.245 599.776C434.116 599.567 434.133 599.401 434.297 599.28C438.218 596.821 441.391 593.8 443.816 590.215C446.24 586.631 447.875 582.909 448.72 579.048C449.61 575.179 449.752 571.536 449.147 568.119C448.724 565.736 447.938 563.394 446.788 561.093C445.684 558.784 444.201 556.96 442.341 555.621C440.518 554.228 438.416 553.743 436.034 554.166C433.876 554.549 432.314 555.545 431.348 557.154C430.382 558.764 430.118 560.805 430.556 563.278C430.995 565.751 431.987 567.686 433.532 569.081C435.115 570.424 437.097 570.884 439.479 570.461C440.647 570.253 441.649 569.89 442.484 569.371C443.319 568.852 444.215 568.02 445.171 566.876C445.208 566.823 445.272 566.789 445.362 566.773C445.496 566.749 445.643 566.793 445.802 566.904C445.961 567.015 446.025 567.119 445.997 567.217C444.212 570.224 441.432 572.062 437.656 572.732Z" />
        <path
            d="M477.849 547.031C480.381 547.595 482.471 548.19 484.118 548.815C485.797 549.384 487.303 550.262 488.636 551.451C489.968 552.64 490.908 554.201 491.455 556.135C492.064 558.288 491.981 560.424 491.204 562.542C490.472 564.648 489.173 566.511 487.307 568.132C485.484 569.739 483.322 570.898 480.818 571.607C478.271 572.328 475.894 572.479 473.688 572.06C471.47 571.597 469.582 570.708 468.024 569.393C466.497 568.021 465.466 566.391 464.932 564.502C464.198 561.909 464.365 559.228 465.431 556.457C466.541 553.675 468.183 551.264 470.358 549.224C468.347 548.654 466.718 547.929 465.473 547.048C464.227 546.166 463.387 544.957 462.951 543.419C462.467 541.705 462.583 540.106 463.302 538.621C464.02 537.136 465.089 535.884 466.508 534.865C467.915 533.802 469.409 533.046 470.991 532.598C472.747 532.101 474.384 532.017 475.901 532.347C477.449 532.62 478.723 533.185 479.724 534.04C480.769 534.883 481.453 535.876 481.777 537.019C482.175 538.425 482.03 540.009 481.342 541.77C480.686 543.474 479.522 545.228 477.849 547.031ZM469.906 534.045C468.368 534.48 467.219 535.28 466.458 536.445C465.74 537.598 465.593 538.921 466.015 540.415C466.537 542.261 467.682 543.622 469.448 544.498C471.201 545.33 473.723 546.111 477.013 546.84C477.8 545.431 478.308 544.124 478.537 542.92C478.753 541.672 478.681 540.411 478.32 539.137C477.736 537.072 476.648 535.576 475.058 534.65C473.512 533.712 471.794 533.51 469.906 534.045ZM482.327 569.898C484.743 569.214 486.508 567.907 487.622 565.977C488.781 564.036 489.005 561.812 488.297 559.308C487.725 557.286 486.751 555.687 485.374 554.511C483.997 553.334 482.476 552.484 480.809 551.959C479.174 551.378 477.019 550.802 474.343 550.231L471.448 549.556C469.971 551.208 468.982 553.079 468.481 555.166C468.025 557.242 468.107 559.378 468.729 561.575C469.289 563.552 470.25 565.274 471.613 566.738C472.977 568.203 474.598 569.239 476.477 569.846C478.357 570.453 480.307 570.47 482.327 569.898Z" />
        <path
            d="M513.785 534.457C516.361 534.757 518.501 535.133 520.204 535.585C521.933 535.978 523.521 536.696 524.969 537.741C526.417 538.787 527.513 540.242 528.256 542.109C529.084 544.188 529.221 546.321 528.667 548.508C528.155 550.679 527.055 552.666 525.366 554.47C523.719 556.257 521.687 557.632 519.27 558.596C516.811 559.576 514.462 559.972 512.225 559.782C509.97 559.55 508.001 558.86 506.315 557.713C504.656 556.507 503.463 554.991 502.736 553.167C501.739 550.664 501.629 547.98 502.404 545.114C503.221 542.232 504.607 539.664 506.559 537.411C504.5 537.052 502.805 536.499 501.476 535.75C500.146 535.002 499.185 533.886 498.594 532.401C497.935 530.746 497.887 529.143 498.448 527.592C499.01 526.041 499.944 524.685 501.251 523.525C502.541 522.323 503.949 521.417 505.476 520.809C507.172 520.133 508.791 519.88 510.333 520.052C511.901 520.165 513.227 520.595 514.311 521.342C515.438 522.073 516.22 522.99 516.66 524.093C517.2 525.451 517.219 527.041 516.717 528.864C516.24 530.627 515.262 532.491 513.785 534.457ZM504.545 522.359C503.061 522.951 502 523.866 501.363 525.103C500.768 526.323 500.758 527.655 501.332 529.097C502.042 530.879 503.32 532.115 505.167 532.804C506.997 533.451 509.586 533.968 512.933 534.354C513.571 532.871 513.941 531.519 514.045 530.298C514.131 529.034 513.93 527.787 513.44 526.557C512.646 524.563 511.41 523.187 509.733 522.43C508.098 521.656 506.369 521.633 504.545 522.359ZM520.595 556.74C522.927 555.811 524.548 554.329 525.458 552.295C526.41 550.244 526.404 548.009 525.441 545.591C524.664 543.639 523.531 542.149 522.04 541.121C520.55 540.093 518.949 539.404 517.237 539.054C515.551 538.645 513.347 538.294 510.627 538.002L507.678 537.629C506.378 539.425 505.587 541.387 505.305 543.515C505.065 545.627 505.367 547.743 506.212 549.864C506.972 551.774 508.106 553.386 509.612 554.703C511.119 556.019 512.839 556.883 514.771 557.292C516.703 557.702 518.644 557.518 520.595 556.74Z" />
    </mask>
    <path
        d="M228.015 533.094C227.404 534.571 227.401 535.954 228.004 537.242C228.625 538.487 229.662 539.98 231.117 541.719C232.279 543.09 233.147 544.215 233.721 545.096C234.338 545.993 234.758 547.008 234.982 548.138C235.206 549.269 235.056 550.467 234.532 551.733C233.642 553.885 232.09 555.368 229.876 556.181C227.663 556.995 225.185 556.834 222.444 555.698C220.208 554.773 218.446 553.301 217.156 551.284C216.973 551.011 216.951 550.705 217.091 550.368L219.006 545.378C219.059 545.252 219.19 545.232 219.401 545.319C219.672 545.382 219.802 545.485 219.792 545.629C219.72 548.071 220.09 550.102 220.902 551.723C221.755 553.362 223.026 554.531 224.713 555.229C226.104 555.806 227.299 555.905 228.295 555.526C229.291 555.148 230.018 554.287 230.474 552.944C231.096 551.323 231.096 549.89 230.475 548.644C229.913 547.374 228.876 545.882 227.362 544.167C226.25 542.916 225.385 541.841 224.768 540.943C224.194 540.063 223.795 539.057 223.571 537.927C223.389 536.813 223.569 535.603 224.11 534.295C225.053 532.016 226.612 530.635 228.788 530.152C231.023 529.645 233.301 529.871 235.62 530.832C237.307 531.53 238.716 532.484 239.846 533.694C240.064 533.883 240.168 534.049 240.158 534.193C240.207 534.313 240.197 534.457 240.127 534.626C239.778 535.47 239.486 536.115 239.252 536.562L238.089 539.194C238.054 539.278 237.91 539.268 237.657 539.163C237.404 539.058 237.295 538.964 237.33 538.879C237.697 537.993 237.7 537.031 237.339 535.992C236.996 534.911 236.414 533.928 235.594 533.045C234.774 532.162 233.858 531.51 232.845 531.091C231.791 530.655 230.825 530.601 229.948 530.929C229.131 531.233 228.487 531.955 228.015 533.094Z"
        fill="#1A528A" />
    <path
        d="M260.991 531.941C260.081 531.637 259.446 531.161 259.085 530.511C258.767 529.876 258.753 529.125 259.041 528.258C259.33 527.392 259.792 526.799 260.427 526.482C261.105 526.178 261.899 526.178 262.809 526.481C263.675 526.77 264.267 527.232 264.584 527.867C264.902 528.503 264.916 529.254 264.628 530.12C264.339 530.987 263.877 531.579 263.242 531.897C262.607 532.215 261.857 532.229 260.991 531.941ZM244.453 563.397C244.367 563.369 244.367 563.224 244.453 562.964C244.54 562.704 244.626 562.589 244.713 562.617C245.882 563.007 246.784 563.188 247.419 563.159C248.112 563.101 248.668 562.805 249.086 562.27C249.519 561.693 249.945 560.775 250.364 559.519L254.411 547.365C254.93 545.806 255.132 544.621 255.016 543.813C254.944 543.018 254.518 542.491 253.739 542.231C252.959 541.972 251.884 541.95 250.513 542.167L250.448 542.145C250.274 542.087 250.181 541.936 250.166 541.69C250.152 541.445 250.224 541.3 250.383 541.257L260.126 540.173L260.407 540.194C260.494 540.223 260.58 540.324 260.667 540.497C260.768 540.627 260.797 540.757 260.754 540.887C260.653 541.191 260.342 542.05 259.823 543.465C259.304 544.881 258.719 546.563 258.07 548.513L254.001 560.731C253.568 562.031 253.359 563.021 253.374 563.699C253.388 564.378 253.634 564.941 254.11 565.389C254.601 565.793 255.431 566.19 256.6 566.58C256.73 566.623 256.752 566.775 256.665 567.035C256.579 567.295 256.47 567.403 256.34 567.36C255.344 567.028 254.551 566.739 253.959 566.494L250.473 565.26L246.943 564.155C246.323 563.996 245.493 563.744 244.453 563.397Z"
        fill="#1A528A" />
    <path
        d="M298.425 577.551C298.558 577.583 298.593 577.733 298.529 577.999C298.464 578.265 298.366 578.383 298.233 578.351C297.212 578.105 296.419 577.891 295.852 577.707L292.274 576.776L288.596 575.961C288.009 575.867 287.204 575.697 286.184 575.451C286.05 575.419 286.016 575.27 286.08 575.003C286.144 574.737 286.243 574.62 286.376 574.652C287.574 574.94 288.488 575.043 289.119 574.959C289.76 574.832 290.244 574.479 290.571 573.9C290.942 573.331 291.288 572.381 291.608 571.049L294.202 560.259C294.832 557.64 294.786 555.585 294.064 554.096C293.386 552.618 292.005 551.628 289.919 551.126C288.543 550.795 287.054 550.836 285.453 551.249C283.906 551.628 282.401 552.323 280.938 553.333L277.495 567.653C277.175 568.985 277.029 569.983 277.057 570.648C277.129 571.323 277.422 571.863 277.935 572.268C278.458 572.629 279.319 572.954 280.518 573.242C280.651 573.274 280.685 573.423 280.621 573.69C280.557 573.956 280.459 574.073 280.325 574.041C279.305 573.796 278.511 573.581 277.945 573.398L274.366 572.466L270.689 571.652C270.101 571.557 269.297 571.387 268.276 571.142C268.143 571.109 268.109 570.96 268.173 570.694C268.237 570.427 268.335 570.31 268.468 570.342C269.667 570.631 270.581 570.733 271.211 570.65C271.852 570.522 272.336 570.169 272.663 569.59C273.035 569.022 273.38 568.072 273.701 566.74L276.871 553.552C277.234 552.042 277.318 550.912 277.123 550.16C276.928 549.409 276.409 548.932 275.566 548.729C274.856 548.558 273.577 548.602 271.731 548.863L271.598 548.831C271.42 548.788 271.308 548.667 271.262 548.468C271.271 548.235 271.375 548.096 271.574 548.05L280.177 546.245L280.592 546.275C280.992 546.371 281.291 546.983 281.489 548.111C281.687 549.239 281.594 550.602 281.21 552.201C283.366 550.653 285.377 549.61 287.243 549.073C289.154 548.546 290.997 548.497 292.772 548.924C295.257 549.522 297 550.669 298.001 552.366C299.001 554.063 299.181 556.244 298.541 558.908L295.402 571.962C295.082 573.294 294.936 574.293 294.964 574.957C295.037 575.632 295.329 576.172 295.842 576.578C296.366 576.938 297.227 577.263 298.425 577.551Z"
        fill="#1A528A" />
    <path
        d="M321.42 582.705C318.482 582.294 316.106 581.317 314.294 579.773C312.488 578.183 311.252 576.304 310.586 574.137C309.921 571.969 309.746 569.754 310.061 567.492C310.465 564.597 311.539 562.188 313.282 560.264C315.031 558.295 317.115 556.903 319.533 556.088C322.003 555.234 324.436 554.974 326.832 555.309C328.821 555.587 330.572 556.246 332.086 557.288C333.652 558.29 334.352 559.379 334.188 560.555C334.106 561.143 333.808 561.632 333.293 562.021C332.829 562.371 332.235 562.496 331.512 562.395C330.292 562.225 329.401 561.339 328.841 559.739C328.379 558.753 327.841 557.986 327.226 557.439C326.611 556.892 325.671 556.53 324.405 556.353C321.873 556 319.745 556.717 318.021 558.505C316.348 560.254 315.281 562.78 314.821 566.082C314.291 569.881 314.805 573.135 316.363 575.842C317.921 578.55 320.599 580.169 324.396 580.699C327.154 581.084 329.563 580.66 331.625 579.426L331.693 579.436C331.828 579.455 331.932 579.538 332.004 579.687C332.12 579.841 332.127 579.957 332.024 580.035C330.246 581.216 328.496 582.033 326.774 582.484C325.103 582.896 323.319 582.97 321.42 582.705Z"
        fill="#1A528A" />
    <path
        d="M365.055 581.637C365.192 581.643 365.301 581.74 365.383 581.927C365.513 582.071 365.529 582.209 365.431 582.341C362.289 584.836 358.895 585.991 355.248 585.808C352.604 585.675 350.378 584.946 348.571 583.621C346.764 582.295 345.409 580.604 344.506 578.547C343.65 576.492 343.279 574.324 343.393 572.043C343.528 569.352 344.29 566.921 345.679 564.75C347.069 562.534 348.891 560.842 351.143 559.675C353.444 558.464 355.916 557.925 358.56 558.058C361.113 558.186 363.039 558.969 364.338 560.406C365.637 561.843 366.224 563.793 366.101 566.256C366.069 566.895 365.978 567.348 365.827 567.614C365.722 567.883 365.533 568.011 365.259 567.997L348.297 567.214C348.156 568.213 348.069 569.032 348.037 569.67C347.838 573.638 348.611 576.901 350.356 579.458C352.102 582.015 354.662 583.378 358.035 583.548C359.403 583.616 360.574 583.492 361.55 583.175C362.571 582.861 363.717 582.347 364.987 581.633L365.055 581.637ZM356.235 559.313C354.274 559.215 352.623 559.795 351.28 561.054C349.939 562.267 349.006 564.026 348.479 566.331L361.485 566.71C361.602 564.384 361.188 562.603 360.245 561.367C359.304 560.085 357.967 559.4 356.235 559.313Z"
        fill="#1A528A" />
    <path
        d="M405.66 563.223C405.533 561.813 405.304 560.802 404.974 560.19C404.644 559.578 404.059 559.195 403.221 559.041C402.427 558.884 401.144 558.885 399.371 559.045C399.235 559.057 399.154 558.927 399.13 558.654C399.105 558.381 399.161 558.238 399.297 558.226C400.616 558.107 401.663 558.036 402.44 558.011L407.083 557.661L411.646 557.18C412.415 557.065 413.481 556.946 414.845 556.823C414.981 556.81 415.062 556.94 415.086 557.213C415.111 557.486 415.055 557.629 414.919 557.641C413.237 557.793 411.999 558.042 411.205 558.389C410.453 558.686 409.946 559.168 409.685 559.833C409.425 560.499 409.356 561.514 409.479 562.878L410.857 578.161C410.984 579.571 411.213 580.582 411.543 581.194C411.873 581.807 412.435 582.191 413.229 582.349C414.067 582.503 415.373 582.499 417.146 582.339C417.283 582.327 417.363 582.457 417.388 582.73C417.412 583.003 417.356 583.146 417.22 583.158C415.902 583.277 414.854 583.349 414.077 583.373L409.434 583.723L404.871 584.204C404.103 584.319 403.036 584.439 401.672 584.562C401.536 584.574 401.456 584.444 401.431 584.171C401.406 583.898 401.462 583.755 401.599 583.743C403.281 583.591 404.498 583.367 405.25 583.069C406.044 582.723 406.571 582.217 406.832 581.551C407.093 580.885 407.162 579.87 407.038 578.506L405.66 563.223Z"
        fill="#1A528A" />
    <path
        d="M437.656 572.732C434.42 573.307 431.852 572.812 429.953 571.247C428.053 569.683 426.891 567.709 426.469 565.325C426.11 563.302 426.331 561.407 427.13 559.642C427.93 557.877 429.171 556.381 430.855 555.155C432.583 553.92 434.593 553.1 436.885 552.693C441.02 551.959 444.556 552.816 447.493 555.263C450.475 557.702 452.385 561.283 453.222 566.004C453.947 570.096 453.721 574.311 452.543 578.648C451.365 582.985 449.253 587.024 446.208 590.765C443.17 594.551 439.334 597.62 434.698 599.974C434.571 600.043 434.42 599.977 434.245 599.776C434.116 599.567 434.133 599.401 434.297 599.28C438.218 596.821 441.391 593.8 443.816 590.215C446.24 586.631 447.875 582.909 448.72 579.048C449.61 575.179 449.752 571.536 449.147 568.119C448.724 565.736 447.938 563.394 446.788 561.093C445.684 558.784 444.201 556.96 442.341 555.621C440.518 554.228 438.416 553.743 436.034 554.166C433.876 554.549 432.314 555.545 431.348 557.154C430.382 558.764 430.118 560.805 430.556 563.278C430.995 565.751 431.987 567.686 433.532 569.081C435.115 570.424 437.097 570.884 439.479 570.461C440.647 570.253 441.649 569.89 442.484 569.371C443.319 568.852 444.215 568.02 445.171 566.876C445.208 566.823 445.272 566.789 445.362 566.773C445.496 566.749 445.643 566.793 445.802 566.904C445.961 567.015 446.025 567.119 445.997 567.217C444.212 570.224 441.432 572.062 437.656 572.732Z"
        fill="#1A528A" />
    <path
        d="M477.849 547.031C480.381 547.595 482.471 548.19 484.118 548.815C485.797 549.384 487.303 550.262 488.636 551.451C489.968 552.64 490.908 554.201 491.455 556.135C492.064 558.288 491.981 560.424 491.204 562.542C490.472 564.648 489.173 566.511 487.307 568.132C485.484 569.739 483.322 570.898 480.818 571.607C478.271 572.328 475.894 572.479 473.688 572.06C471.47 571.597 469.582 570.708 468.024 569.393C466.497 568.021 465.466 566.391 464.932 564.502C464.198 561.909 464.365 559.228 465.431 556.457C466.541 553.675 468.183 551.264 470.358 549.224C468.347 548.654 466.718 547.929 465.473 547.048C464.227 546.166 463.387 544.957 462.951 543.419C462.467 541.705 462.583 540.106 463.302 538.621C464.02 537.136 465.089 535.884 466.508 534.865C467.915 533.802 469.409 533.046 470.991 532.598C472.747 532.101 474.384 532.017 475.901 532.347C477.449 532.62 478.723 533.185 479.724 534.04C480.769 534.883 481.453 535.876 481.777 537.019C482.175 538.425 482.03 540.009 481.342 541.77C480.686 543.474 479.522 545.228 477.849 547.031ZM469.906 534.045C468.368 534.48 467.219 535.28 466.458 536.445C465.74 537.598 465.593 538.921 466.015 540.415C466.537 542.261 467.682 543.622 469.448 544.498C471.201 545.33 473.723 546.111 477.013 546.84C477.8 545.431 478.308 544.124 478.537 542.92C478.753 541.672 478.681 540.411 478.32 539.137C477.736 537.072 476.648 535.576 475.058 534.65C473.512 533.712 471.794 533.51 469.906 534.045ZM482.327 569.898C484.743 569.214 486.508 567.907 487.622 565.977C488.781 564.036 489.005 561.812 488.297 559.308C487.725 557.286 486.751 555.687 485.374 554.511C483.997 553.334 482.476 552.484 480.809 551.959C479.174 551.378 477.019 550.802 474.343 550.231L471.448 549.556C469.971 551.208 468.982 553.079 468.481 555.166C468.025 557.242 468.107 559.378 468.729 561.575C469.289 563.552 470.25 565.274 471.613 566.738C472.977 568.203 474.598 569.239 476.477 569.846C478.357 570.453 480.307 570.47 482.327 569.898Z"
        fill="#1A528A" />
    <path
        d="M513.785 534.457C516.361 534.757 518.501 535.133 520.204 535.585C521.933 535.978 523.521 536.696 524.969 537.741C526.417 538.787 527.513 540.242 528.256 542.109C529.084 544.188 529.221 546.321 528.667 548.508C528.155 550.679 527.055 552.666 525.366 554.47C523.719 556.257 521.687 557.632 519.27 558.596C516.811 559.576 514.462 559.972 512.225 559.782C509.97 559.55 508.001 558.86 506.315 557.713C504.656 556.507 503.463 554.991 502.736 553.167C501.739 550.664 501.629 547.98 502.404 545.114C503.221 542.232 504.607 539.664 506.559 537.411C504.5 537.052 502.805 536.499 501.476 535.75C500.146 535.002 499.185 533.886 498.594 532.401C497.935 530.746 497.887 529.143 498.448 527.592C499.01 526.041 499.944 524.685 501.251 523.525C502.541 522.323 503.949 521.417 505.476 520.809C507.172 520.133 508.791 519.88 510.333 520.052C511.901 520.165 513.227 520.595 514.311 521.342C515.438 522.073 516.22 522.99 516.66 524.093C517.2 525.451 517.219 527.041 516.717 528.864C516.24 530.627 515.262 532.491 513.785 534.457ZM504.545 522.359C503.061 522.951 502 523.866 501.363 525.103C500.768 526.323 500.758 527.655 501.332 529.097C502.042 530.879 503.32 532.115 505.167 532.804C506.997 533.451 509.586 533.968 512.933 534.354C513.571 532.871 513.941 531.519 514.045 530.298C514.131 529.034 513.93 527.787 513.44 526.557C512.646 524.563 511.41 523.187 509.733 522.43C508.098 521.656 506.369 521.633 504.545 522.359ZM520.595 556.74C522.927 555.811 524.548 554.329 525.458 552.295C526.41 550.244 526.404 548.009 525.441 545.591C524.664 543.639 523.531 542.149 522.04 541.121C520.55 540.093 518.949 539.404 517.237 539.054C515.551 538.645 513.347 538.294 510.627 538.002L507.678 537.629C506.378 539.425 505.587 541.387 505.305 543.515C505.065 545.627 505.367 547.743 506.212 549.864C506.972 551.774 508.106 553.386 509.612 554.703C511.119 556.019 512.839 556.883 514.771 557.292C516.703 557.702 518.644 557.518 520.595 556.74Z"
        fill="#1A528A" />
    <path
        d="M228.015 533.094C227.404 534.571 227.401 535.954 228.004 537.242C228.625 538.487 229.662 539.98 231.117 541.719C232.279 543.09 233.147 544.215 233.721 545.096C234.338 545.993 234.758 547.008 234.982 548.138C235.206 549.269 235.056 550.467 234.532 551.733C233.642 553.885 232.09 555.368 229.876 556.181C227.663 556.995 225.185 556.834 222.444 555.698C220.208 554.773 218.446 553.301 217.156 551.284C216.973 551.011 216.951 550.705 217.091 550.368L219.006 545.378C219.059 545.252 219.19 545.232 219.401 545.319C219.672 545.382 219.802 545.485 219.792 545.629C219.72 548.071 220.09 550.102 220.902 551.723C221.755 553.362 223.026 554.531 224.713 555.229C226.104 555.806 227.299 555.905 228.295 555.526C229.291 555.148 230.018 554.287 230.474 552.944C231.096 551.323 231.096 549.89 230.475 548.644C229.913 547.374 228.876 545.882 227.362 544.167C226.25 542.916 225.385 541.841 224.768 540.943C224.194 540.063 223.795 539.057 223.571 537.927C223.389 536.813 223.569 535.603 224.11 534.295C225.053 532.016 226.612 530.635 228.788 530.152C231.023 529.645 233.301 529.871 235.62 530.832C237.307 531.53 238.716 532.484 239.846 533.694C240.064 533.883 240.168 534.049 240.158 534.193C240.207 534.313 240.197 534.457 240.127 534.626C239.778 535.47 239.486 536.115 239.252 536.562L238.089 539.194C238.054 539.278 237.91 539.268 237.657 539.163C237.404 539.058 237.295 538.964 237.33 538.879C237.697 537.993 237.7 537.031 237.339 535.992C236.996 534.911 236.414 533.928 235.594 533.045C234.774 532.162 233.858 531.51 232.845 531.091C231.791 530.655 230.825 530.601 229.948 530.929C229.131 531.233 228.487 531.955 228.015 533.094Z"
        stroke="#1A528A" mask="url(#path-4-outside-1)" />
    <path
        d="M260.991 531.941C260.081 531.637 259.446 531.161 259.085 530.511C258.767 529.876 258.753 529.125 259.041 528.258C259.33 527.392 259.792 526.799 260.427 526.482C261.105 526.178 261.899 526.178 262.809 526.481C263.675 526.77 264.267 527.232 264.584 527.867C264.902 528.503 264.916 529.254 264.628 530.12C264.339 530.987 263.877 531.579 263.242 531.897C262.607 532.215 261.857 532.229 260.991 531.941ZM244.453 563.397C244.367 563.369 244.367 563.224 244.453 562.964C244.54 562.704 244.626 562.589 244.713 562.617C245.882 563.007 246.784 563.188 247.419 563.159C248.112 563.101 248.668 562.805 249.086 562.27C249.519 561.693 249.945 560.775 250.364 559.519L254.411 547.365C254.93 545.806 255.132 544.621 255.016 543.813C254.944 543.018 254.518 542.491 253.739 542.231C252.959 541.972 251.884 541.95 250.513 542.167L250.448 542.145C250.274 542.087 250.181 541.936 250.166 541.69C250.152 541.445 250.224 541.3 250.383 541.257L260.126 540.173L260.407 540.194C260.494 540.223 260.58 540.324 260.667 540.497C260.768 540.627 260.797 540.757 260.754 540.887C260.653 541.191 260.342 542.05 259.823 543.465C259.304 544.881 258.719 546.563 258.07 548.513L254.001 560.731C253.568 562.031 253.359 563.021 253.374 563.699C253.388 564.378 253.634 564.941 254.11 565.389C254.601 565.793 255.431 566.19 256.6 566.58C256.73 566.623 256.752 566.775 256.665 567.035C256.579 567.295 256.47 567.403 256.34 567.36C255.344 567.028 254.551 566.739 253.959 566.494L250.473 565.26L246.943 564.155C246.323 563.996 245.493 563.744 244.453 563.397Z"
        stroke="#1A528A" mask="url(#path-4-outside-1)" />
    <path
        d="M298.425 577.551C298.558 577.583 298.593 577.733 298.529 577.999C298.464 578.265 298.366 578.383 298.233 578.351C297.212 578.105 296.419 577.891 295.852 577.707L292.274 576.776L288.596 575.961C288.009 575.867 287.204 575.697 286.184 575.451C286.05 575.419 286.016 575.27 286.08 575.003C286.144 574.737 286.243 574.62 286.376 574.652C287.574 574.94 288.488 575.043 289.119 574.959C289.76 574.832 290.244 574.479 290.571 573.9C290.942 573.331 291.288 572.381 291.608 571.049L294.202 560.259C294.832 557.64 294.786 555.585 294.064 554.096C293.386 552.618 292.005 551.628 289.919 551.126C288.543 550.795 287.054 550.836 285.453 551.249C283.906 551.628 282.401 552.323 280.938 553.333L277.495 567.653C277.175 568.985 277.029 569.983 277.057 570.648C277.129 571.323 277.422 571.863 277.935 572.268C278.458 572.629 279.319 572.954 280.518 573.242C280.651 573.274 280.685 573.423 280.621 573.69C280.557 573.956 280.459 574.073 280.325 574.041C279.305 573.796 278.511 573.581 277.945 573.398L274.366 572.466L270.689 571.652C270.101 571.557 269.297 571.387 268.276 571.142C268.143 571.109 268.109 570.96 268.173 570.694C268.237 570.427 268.335 570.31 268.468 570.342C269.667 570.631 270.581 570.733 271.211 570.65C271.852 570.522 272.336 570.169 272.663 569.59C273.035 569.022 273.38 568.072 273.701 566.74L276.871 553.552C277.234 552.042 277.318 550.912 277.123 550.16C276.928 549.409 276.409 548.932 275.566 548.729C274.856 548.558 273.577 548.602 271.731 548.863L271.598 548.831C271.42 548.788 271.308 548.667 271.262 548.468C271.271 548.235 271.375 548.096 271.574 548.05L280.177 546.245L280.592 546.275C280.992 546.371 281.291 546.983 281.489 548.111C281.687 549.239 281.594 550.602 281.21 552.201C283.366 550.653 285.377 549.61 287.243 549.073C289.154 548.546 290.997 548.497 292.772 548.924C295.257 549.522 297 550.669 298.001 552.366C299.001 554.063 299.181 556.244 298.541 558.908L295.402 571.962C295.082 573.294 294.936 574.293 294.964 574.957C295.037 575.632 295.329 576.172 295.842 576.578C296.366 576.938 297.227 577.263 298.425 577.551Z"
        stroke="#1A528A" mask="url(#path-4-outside-1)" />
    <path
        d="M321.42 582.705C318.482 582.294 316.106 581.317 314.294 579.773C312.488 578.183 311.252 576.304 310.586 574.137C309.921 571.969 309.746 569.754 310.061 567.492C310.465 564.597 311.539 562.188 313.282 560.264C315.031 558.295 317.115 556.903 319.533 556.088C322.003 555.234 324.436 554.974 326.832 555.309C328.821 555.587 330.572 556.246 332.086 557.288C333.652 558.29 334.352 559.379 334.188 560.555C334.106 561.143 333.808 561.632 333.293 562.021C332.829 562.371 332.235 562.496 331.512 562.395C330.292 562.225 329.401 561.339 328.841 559.739C328.379 558.753 327.841 557.986 327.226 557.439C326.611 556.892 325.671 556.53 324.405 556.353C321.873 556 319.745 556.717 318.021 558.505C316.348 560.254 315.281 562.78 314.821 566.082C314.291 569.881 314.805 573.135 316.363 575.842C317.921 578.55 320.599 580.169 324.396 580.699C327.154 581.084 329.563 580.66 331.625 579.426L331.693 579.436C331.828 579.455 331.932 579.538 332.004 579.687C332.12 579.841 332.127 579.957 332.024 580.035C330.246 581.216 328.496 582.033 326.774 582.484C325.103 582.896 323.319 582.97 321.42 582.705Z"
        stroke="#1A528A" mask="url(#path-4-outside-1)" />
    <path
        d="M365.055 581.637C365.192 581.643 365.301 581.74 365.383 581.927C365.513 582.071 365.529 582.209 365.431 582.341C362.289 584.836 358.895 585.991 355.248 585.808C352.604 585.675 350.378 584.946 348.571 583.621C346.764 582.295 345.409 580.604 344.506 578.547C343.65 576.492 343.279 574.324 343.393 572.043C343.528 569.352 344.29 566.921 345.679 564.75C347.069 562.534 348.891 560.842 351.143 559.675C353.444 558.464 355.916 557.925 358.56 558.058C361.113 558.186 363.039 558.969 364.338 560.406C365.637 561.843 366.224 563.793 366.101 566.256C366.069 566.895 365.978 567.348 365.827 567.614C365.722 567.883 365.533 568.011 365.259 567.997L348.297 567.214C348.156 568.213 348.069 569.032 348.037 569.67C347.838 573.638 348.611 576.901 350.356 579.458C352.102 582.015 354.662 583.378 358.035 583.548C359.403 583.616 360.574 583.492 361.55 583.175C362.571 582.861 363.717 582.347 364.987 581.633L365.055 581.637ZM356.235 559.313C354.274 559.215 352.623 559.795 351.28 561.054C349.939 562.267 349.006 564.026 348.479 566.331L361.485 566.71C361.602 564.384 361.188 562.603 360.245 561.367C359.304 560.085 357.967 559.4 356.235 559.313Z"
        stroke="#1A528A" mask="url(#path-4-outside-1)" />
    <path
        d="M405.66 563.223C405.533 561.813 405.304 560.802 404.974 560.19C404.644 559.578 404.059 559.195 403.221 559.041C402.427 558.884 401.144 558.885 399.371 559.045C399.235 559.057 399.154 558.927 399.13 558.654C399.105 558.381 399.161 558.238 399.297 558.226C400.616 558.107 401.663 558.036 402.44 558.011L407.083 557.661L411.646 557.18C412.415 557.065 413.481 556.946 414.845 556.823C414.981 556.81 415.062 556.94 415.086 557.213C415.111 557.486 415.055 557.629 414.919 557.641C413.237 557.793 411.999 558.042 411.205 558.389C410.453 558.686 409.946 559.168 409.685 559.833C409.425 560.499 409.356 561.514 409.479 562.878L410.857 578.161C410.984 579.571 411.213 580.582 411.543 581.194C411.873 581.807 412.435 582.191 413.229 582.349C414.067 582.503 415.373 582.499 417.146 582.339C417.283 582.327 417.363 582.457 417.388 582.73C417.412 583.003 417.356 583.146 417.22 583.158C415.902 583.277 414.854 583.349 414.077 583.373L409.434 583.723L404.871 584.204C404.103 584.319 403.036 584.439 401.672 584.562C401.536 584.574 401.456 584.444 401.431 584.171C401.406 583.898 401.462 583.755 401.599 583.743C403.281 583.591 404.498 583.367 405.25 583.069C406.044 582.723 406.571 582.217 406.832 581.551C407.093 580.885 407.162 579.87 407.038 578.506L405.66 563.223Z"
        stroke="#1A528A" mask="url(#path-4-outside-1)" />
    <path
        d="M437.656 572.732C434.42 573.307 431.852 572.812 429.953 571.247C428.053 569.683 426.891 567.709 426.469 565.325C426.11 563.302 426.331 561.407 427.13 559.642C427.93 557.877 429.171 556.381 430.855 555.155C432.583 553.92 434.593 553.1 436.885 552.693C441.02 551.959 444.556 552.816 447.493 555.263C450.475 557.702 452.385 561.283 453.222 566.004C453.947 570.096 453.721 574.311 452.543 578.648C451.365 582.985 449.253 587.024 446.208 590.765C443.17 594.551 439.334 597.62 434.698 599.974C434.571 600.043 434.42 599.977 434.245 599.776C434.116 599.567 434.133 599.401 434.297 599.28C438.218 596.821 441.391 593.8 443.816 590.215C446.24 586.631 447.875 582.909 448.72 579.048C449.61 575.179 449.752 571.536 449.147 568.119C448.724 565.736 447.938 563.394 446.788 561.093C445.684 558.784 444.201 556.96 442.341 555.621C440.518 554.228 438.416 553.743 436.034 554.166C433.876 554.549 432.314 555.545 431.348 557.154C430.382 558.764 430.118 560.805 430.556 563.278C430.995 565.751 431.987 567.686 433.532 569.081C435.115 570.424 437.097 570.884 439.479 570.461C440.647 570.253 441.649 569.89 442.484 569.371C443.319 568.852 444.215 568.02 445.171 566.876C445.208 566.823 445.272 566.789 445.362 566.773C445.496 566.749 445.643 566.793 445.802 566.904C445.961 567.015 446.025 567.119 445.997 567.217C444.212 570.224 441.432 572.062 437.656 572.732Z"
        stroke="#1A528A" mask="url(#path-4-outside-1)" />
    <path
        d="M477.849 547.031C480.381 547.595 482.471 548.19 484.118 548.815C485.797 549.384 487.303 550.262 488.636 551.451C489.968 552.64 490.908 554.201 491.455 556.135C492.064 558.288 491.981 560.424 491.204 562.542C490.472 564.648 489.173 566.511 487.307 568.132C485.484 569.739 483.322 570.898 480.818 571.607C478.271 572.328 475.894 572.479 473.688 572.06C471.47 571.597 469.582 570.708 468.024 569.393C466.497 568.021 465.466 566.391 464.932 564.502C464.198 561.909 464.365 559.228 465.431 556.457C466.541 553.675 468.183 551.264 470.358 549.224C468.347 548.654 466.718 547.929 465.473 547.048C464.227 546.166 463.387 544.957 462.951 543.419C462.467 541.705 462.583 540.106 463.302 538.621C464.02 537.136 465.089 535.884 466.508 534.865C467.915 533.802 469.409 533.046 470.991 532.598C472.747 532.101 474.384 532.017 475.901 532.347C477.449 532.62 478.723 533.185 479.724 534.04C480.769 534.883 481.453 535.876 481.777 537.019C482.175 538.425 482.03 540.009 481.342 541.77C480.686 543.474 479.522 545.228 477.849 547.031ZM469.906 534.045C468.368 534.48 467.219 535.28 466.458 536.445C465.74 537.598 465.593 538.921 466.015 540.415C466.537 542.261 467.682 543.622 469.448 544.498C471.201 545.33 473.723 546.111 477.013 546.84C477.8 545.431 478.308 544.124 478.537 542.92C478.753 541.672 478.681 540.411 478.32 539.137C477.736 537.072 476.648 535.576 475.058 534.65C473.512 533.712 471.794 533.51 469.906 534.045ZM482.327 569.898C484.743 569.214 486.508 567.907 487.622 565.977C488.781 564.036 489.005 561.812 488.297 559.308C487.725 557.286 486.751 555.687 485.374 554.511C483.997 553.334 482.476 552.484 480.809 551.959C479.174 551.378 477.019 550.802 474.343 550.231L471.448 549.556C469.971 551.208 468.982 553.079 468.481 555.166C468.025 557.242 468.107 559.378 468.729 561.575C469.289 563.552 470.25 565.274 471.613 566.738C472.977 568.203 474.598 569.239 476.477 569.846C478.357 570.453 480.307 570.47 482.327 569.898Z"
        stroke="#1A528A" mask="url(#path-4-outside-1)" />
    <path
        d="M513.785 534.457C516.361 534.757 518.501 535.133 520.204 535.585C521.933 535.978 523.521 536.696 524.969 537.741C526.417 538.787 527.513 540.242 528.256 542.109C529.084 544.188 529.221 546.321 528.667 548.508C528.155 550.679 527.055 552.666 525.366 554.47C523.719 556.257 521.687 557.632 519.27 558.596C516.811 559.576 514.462 559.972 512.225 559.782C509.97 559.55 508.001 558.86 506.315 557.713C504.656 556.507 503.463 554.991 502.736 553.167C501.739 550.664 501.629 547.98 502.404 545.114C503.221 542.232 504.607 539.664 506.559 537.411C504.5 537.052 502.805 536.499 501.476 535.75C500.146 535.002 499.185 533.886 498.594 532.401C497.935 530.746 497.887 529.143 498.448 527.592C499.01 526.041 499.944 524.685 501.251 523.525C502.541 522.323 503.949 521.417 505.476 520.809C507.172 520.133 508.791 519.88 510.333 520.052C511.901 520.165 513.227 520.595 514.311 521.342C515.438 522.073 516.22 522.99 516.66 524.093C517.2 525.451 517.219 527.041 516.717 528.864C516.24 530.627 515.262 532.491 513.785 534.457ZM504.545 522.359C503.061 522.951 502 523.866 501.363 525.103C500.768 526.323 500.758 527.655 501.332 529.097C502.042 530.879 503.32 532.115 505.167 532.804C506.997 533.451 509.586 533.968 512.933 534.354C513.571 532.871 513.941 531.519 514.045 530.298C514.131 529.034 513.93 527.787 513.44 526.557C512.646 524.563 511.41 523.187 509.733 522.43C508.098 521.656 506.369 521.633 504.545 522.359ZM520.595 556.74C522.927 555.811 524.548 554.329 525.458 552.295C526.41 550.244 526.404 548.009 525.441 545.591C524.664 543.639 523.531 542.149 522.04 541.121C520.55 540.093 518.949 539.404 517.237 539.054C515.551 538.645 513.347 538.294 510.627 538.002L507.678 537.629C506.378 539.425 505.587 541.387 505.305 543.515C505.065 545.627 505.367 547.743 506.212 549.864C506.972 551.774 508.106 553.386 509.612 554.703C511.119 556.019 512.839 556.883 514.771 557.292C516.703 557.702 518.644 557.518 520.595 556.74Z"
        stroke="#1A528A" mask="url(#path-4-outside-1)" />
    <path
        d="M237.421 209.85C243.001 209.85 247.501 211.83 250.921 215.79C254.341 219.57 256.051 224.25 256.051 229.83C256.051 233.43 255.241 237.66 253.621 242.52C252.001 247.2 250.291 251.07 248.491 254.13C247.771 254.67 246.961 254.76 246.061 254.4C245.341 254.04 245.071 253.41 245.251 252.51C246.331 249.27 246.781 246.03 246.601 242.79C246.421 239.55 245.521 236.58 243.901 233.88C242.281 231.18 239.761 229.02 236.341 227.4C233.101 225.6 228.961 224.7 223.921 224.7C217.081 224.7 211.141 225.96 206.101 228.48C201.241 230.82 196.741 235.05 192.601 241.17C188.461 247.11 184.591 255.12 180.991 265.2C177.391 275.28 173.701 287.88 169.921 303C163.621 327.12 154.891 345.75 143.731 358.89C151.831 361.95 160.291 364.74 169.111 367.26C178.111 369.6 188.011 370.77 198.811 370.77C207.811 370.77 214.651 369.15 219.331 365.91C224.011 362.67 227.881 357.99 230.941 351.87C231.661 351.33 232.291 351.33 232.831 351.87C233.551 352.23 233.821 352.95 233.641 354.03C229.321 363.75 223.561 371.22 216.361 376.44C209.161 381.48 199.531 384 187.471 384C176.851 384 167.131 382.47 158.311 379.41C149.671 376.17 141.211 372.75 132.931 369.15C119.791 379.05 103.681 384 84.6014 384C77.4014 384 72.0014 382.74 68.4014 380.22C64.8014 377.7 63.0014 374.55 63.0014 370.77C63.0014 368.43 63.8114 365.91 65.4314 363.21C67.2314 360.51 69.6614 357.99 72.7214 355.65C75.7814 353.31 79.3814 351.33 83.5214 349.71C87.8414 348.09 92.6114 347.28 97.8314 347.28C104.491 347.28 110.971 348.18 117.271 349.98C123.751 351.6 130.321 353.67 136.981 356.19C140.041 351.15 143.011 344.85 145.891 337.29C148.771 329.73 151.651 320.46 154.531 309.48C158.671 294 163.621 280.14 169.381 267.9C175.141 255.48 181.531 245.04 188.551 236.58C195.751 227.94 203.401 221.37 211.501 216.87C219.781 212.19 228.421 209.85 237.421 209.85ZM96.7514 376.98C103.231 376.98 108.991 376.35 114.031 375.09C119.251 373.65 123.931 370.95 128.071 366.99C121.411 364.11 114.661 361.59 107.821 359.43C100.981 357.27 93.6914 356.19 85.9514 356.19C77.6714 356.19 73.5314 358.98 73.5314 364.56C73.5314 368.16 75.5114 371.13 79.4714 373.47C83.6114 375.81 89.3714 376.98 96.7514 376.98Z"
        fill="#D6743E" />
    <path
        d="M607.476 207C610.309 207 612.642 207.75 614.476 209.25C616.476 210.75 617.726 213.25 618.226 216.75C618.726 220.083 618.559 224.583 617.726 230.25C616.892 235.75 615.142 242.583 612.476 250.75C609.142 261.083 606.142 270.417 603.476 278.75C600.809 286.917 598.809 295.167 597.476 303.5C596.476 310.667 596.976 316.083 598.976 319.75C600.976 323.417 605.226 325.25 611.726 325.25C626.226 325.25 641.309 315.667 656.976 296.5C672.642 277.167 689.892 248.667 708.726 211C710.559 209.333 712.642 208.25 714.976 207.75C717.476 207.25 719.809 207 721.976 207C723.976 207 724.809 207.833 724.476 209.5C707.309 246.167 691.142 276.75 675.976 301.25C660.976 325.583 646.392 345.083 632.226 359.75C618.059 374.417 604.059 384.75 590.226 390.75C576.392 396.917 562.059 400 547.226 400C531.559 400 519.476 396 510.976 388C502.476 380 498.226 369.667 498.226 357C498.226 350.667 499.476 344.5 501.976 338.5C504.642 332.5 508.392 327.083 513.226 322.25C518.226 317.25 524.309 313.083 531.476 309.75C538.642 306.417 546.892 304.25 556.226 303.25C557.059 303.417 557.392 303.833 557.226 304.5C557.226 305.167 556.809 305.917 555.976 306.75C548.309 307.75 541.726 309.5 536.226 312C530.892 314.5 526.476 317.667 522.976 321.5C519.476 325.333 516.892 329.75 515.226 334.75C513.726 339.583 512.976 344.75 512.976 350.25C512.976 362.917 516.809 372.833 524.476 380C532.142 387.333 543.226 391 557.726 391C568.392 391 578.476 389.167 587.976 385.5C597.642 381.833 607.059 375.75 616.226 367.25C625.392 358.583 634.642 347.167 643.976 333C653.309 318.833 663.142 301.25 673.476 280.25C668.809 287.917 663.642 295.083 657.976 301.75C652.476 308.25 646.642 314 640.476 319C634.476 323.833 628.309 327.667 621.976 330.5C615.642 333.167 609.392 334.5 603.226 334.5C595.226 334.5 589.476 332.417 585.976 328.25C582.476 323.917 581.226 317.833 582.226 310C583.559 300.833 585.559 291.667 588.226 282.5C591.059 273.333 593.809 264.5 596.476 256C599.142 247.667 600.976 241 601.976 236C603.142 230.833 603.642 226.833 603.476 224C603.309 221.167 602.559 219.333 601.226 218.5C600.059 217.5 598.476 217 596.476 217C592.642 217 588.976 218.5 585.476 221.5C582.142 224.333 579.559 227.25 577.726 230.25C577.059 230.75 576.392 230.75 575.726 230.25C575.226 229.75 575.059 229.083 575.226 228.25C576.726 225.583 578.642 223 580.976 220.5C583.476 217.833 586.142 215.5 588.976 213.5C591.809 211.5 594.809 209.917 597.976 208.75C601.142 207.583 604.309 207 607.476 207Z"
        fill="#D6743E" />
</svg>